<svg width="593" height="577" viewBox="0 0 593 577" fill="none" xmlns="http://www.w3.org/2000/svg">
<g clip-path="url(#clip0_1_6554)">
<path d="M593 0H0V593H593V0Z" fill="#E8EFF6"/>
<g style="mix-blend-mode:multiply" opacity="0.18">
<path d="M593 306.783V592.027H0V241.315C25.8548 212.579 58.7307 196.093 98.438 196.093C292.219 196.093 233.595 308.657 422.097 270.859C485.335 258.169 549.865 266.98 593 306.783Z" fill="white"/>
</g>
<mask id="mask0_1_6554" style="mask-type:luminance" maskUnits="userSpaceOnUse" x="0" y="0" width="593" height="593">
<path d="M593 0H0V593H593V0Z" fill="white"/>
</mask>
<g mask="url(#mask0_1_6554)">
<g style="mix-blend-mode:multiply" opacity="0.28">
<path d="M520.485 348.792L392.352 348.009L390.547 643.531L518.68 644.314L520.485 348.792Z" fill="#EACB98"/>
<g opacity="0.55">
<g style="mix-blend-mode:multiply" opacity="0.45">
<path d="M404.711 348.262L399.291 348.229L397.482 644.356L402.902 644.389L404.711 348.262Z" fill="#DCAD71"/>
</g>
<g style="mix-blend-mode:multiply" opacity="0.45">
<path d="M420.246 348.369L414.827 348.336L413.018 644.463L418.438 644.496L420.246 348.369Z" fill="#DCAD71"/>
</g>
<g style="mix-blend-mode:multiply" opacity="0.45">
<path d="M435.794 348.452L430.374 348.419L428.565 644.546L433.985 644.579L435.794 348.452Z" fill="#DCAD71"/>
</g>
<g style="mix-blend-mode:multiply" opacity="0.45">
<path d="M451.33 348.547L445.91 348.514L444.101 644.641L449.521 644.674L451.33 348.547Z" fill="#DCAD71"/>
</g>
<g style="mix-blend-mode:multiply" opacity="0.45">
<path d="M466.877 348.642L461.458 348.609L459.649 644.736L465.068 644.769L466.877 348.642Z" fill="#DCAD71"/>
</g>
<g style="mix-blend-mode:multiply" opacity="0.45">
<path d="M482.437 348.737L477.017 348.704L475.208 644.831L480.628 644.864L482.437 348.737Z" fill="#DCAD71"/>
</g>
<g style="mix-blend-mode:multiply" opacity="0.45">
<path d="M497.973 348.832L492.553 348.799L490.744 644.926L496.164 644.959L497.973 348.832Z" fill="#DCAD71"/>
</g>
<g style="mix-blend-mode:multiply" opacity="0.45">
<path d="M513.52 348.927L508.1 348.894L506.291 645.021L511.711 645.054L513.52 348.927Z" fill="#DCAD71"/>
</g>
</g>
<path d="M457.084 240.77L400.595 348.044L512.269 348.72L457.084 240.77Z" fill="#AB8056"/>
<path d="M476.736 317.67C476.808 306.557 467.853 297.496 456.74 297.437C445.628 297.366 436.567 306.32 436.507 317.433L436.318 348.269L476.547 348.518L476.736 317.682V317.67Z" fill="#8A6240"/>
<path d="M411.64 332.199L392.451 332.082L390.549 643.531L409.738 643.649L411.64 332.199Z" fill="#DCA666"/>
<g style="mix-blend-mode:multiply" opacity="0.45">
<path d="M397.267 332.123L392.44 332.094L390.537 643.543L395.364 643.573L397.267 332.123Z" fill="#DCAD71"/>
</g>
<path d="M411.628 332.205L392.439 332.087L392.416 335.835L411.605 335.952L411.628 332.205Z" fill="#C58446"/>
<path d="M402.244 300.319L386.102 332.021L418.006 332.222L402.244 300.319Z" fill="#AB8056"/>
<path d="M511.19 300.983L495.048 332.685L526.952 332.875L511.19 300.983Z" fill="#AB8056"/>
<path d="M424.79 496.163C420.532 496.139 417.069 499.567 417.045 503.813L416.867 533.309L432.261 533.404L432.439 503.908C432.463 499.65 429.036 496.187 424.79 496.163Z" fill="#B56F39"/>
<path d="M486.284 496.531C482.026 496.507 478.563 499.935 478.539 504.181L478.361 533.676L493.755 533.771L493.933 504.275C493.957 500.018 490.53 496.555 486.284 496.531Z" fill="#B56F39"/>
<path d="M455.602 484.801C447.098 484.754 440.16 491.597 440.113 500.113L439.911 533.463L470.712 533.653L470.913 500.302C470.961 491.799 464.117 484.861 455.602 484.813V484.801Z" fill="#B56F39"/>
<path d="M424.754 501.275C420.496 501.251 417.033 504.679 417.009 508.925L416.867 533.309L432.261 533.404L432.404 509.019C432.427 504.762 429 501.299 424.754 501.275Z" fill="#C88C47"/>
<path d="M486.248 501.654C481.99 501.631 478.527 505.058 478.504 509.304L478.361 533.688L493.755 533.783L493.898 509.399C493.922 505.141 490.494 501.678 486.248 501.654Z" fill="#C88C47"/>
<path d="M455.578 489.913C447.075 489.866 440.136 496.709 440.089 505.224L439.923 533.463L470.723 533.653L470.889 505.414C470.937 496.91 464.094 489.972 455.578 489.925V489.913Z" fill="#C88C47"/>
<path d="M425.406 393.384C421.149 393.361 417.685 396.788 417.662 401.034L417.484 430.53L432.878 430.625L433.056 401.129C433.08 396.871 429.652 393.408 425.406 393.384Z" fill="#B56F39"/>
<path d="M486.9 393.752C482.643 393.728 479.18 397.156 479.156 401.402L478.978 430.898L494.372 430.992L494.55 401.497C494.574 397.239 491.146 393.776 486.9 393.752Z" fill="#B56F39"/>
<path d="M456.23 382.022C447.727 381.975 440.789 388.818 440.741 397.334L440.54 430.684L471.34 430.874L471.542 397.523C471.589 389.02 464.746 382.082 456.23 382.034V382.022Z" fill="#B56F39"/>
<path d="M425.383 398.508C421.125 398.484 417.662 401.912 417.638 406.158L417.496 430.542L432.89 430.637L433.032 406.253C433.056 401.995 429.629 398.532 425.383 398.508Z" fill="#C88C47"/>
<path d="M486.877 398.876C482.619 398.852 479.156 402.279 479.132 406.525L478.99 430.909L494.384 431.004L494.526 406.62C494.55 402.362 491.123 398.899 486.877 398.876Z" fill="#C88C47"/>
<path d="M456.195 387.146C447.691 387.099 440.753 393.942 440.706 402.457L440.54 430.696L471.34 430.886L471.506 402.647C471.554 394.143 464.71 387.205 456.195 387.158V387.146Z" fill="#C88C47"/>
<path d="M520.58 332.876L501.391 332.759L499.489 644.209L518.678 644.326L520.58 332.876Z" fill="#DCA666"/>
<g style="mix-blend-mode:multiply" opacity="0.45">
<path d="M520.58 332.864L515.753 332.835L513.85 644.284L518.677 644.314L520.58 332.864Z" fill="#DCAD71"/>
</g>
<path d="M520.58 332.87L501.391 332.753L501.368 336.501L520.557 336.618L520.58 332.87Z" fill="#C58446"/>
<path d="M519.292 542.187L391.159 541.405L391.088 552.932L519.221 553.715L519.292 542.187Z" fill="#C58446"/>
<path d="M519.271 545.579L391.138 544.796L391.109 549.528L519.242 550.311L519.271 545.579Z" fill="#89421C"/>
<path d="M519.931 439.402L391.798 438.62L391.728 450.147L519.861 450.93L519.931 439.402Z" fill="#C58446"/>
<path d="M519.911 442.806L391.778 442.023L391.749 446.755L519.882 447.538L519.911 442.806Z" fill="#89421C"/>
</g>
<g style="mix-blend-mode:multiply" opacity="0.28">
<path d="M211.868 448.057L72.4344 446.962L71.6227 550.307L211.056 551.402L211.868 448.057Z" fill="#E3BA7C"/>
<path d="M211.068 551.408L71.6346 550.313L70.823 653.657L210.257 654.753L211.068 551.408Z" fill="#E3BA7C"/>
<g style="mix-blend-mode:multiply" opacity="0.45">
<path d="M85.4601 447.07L79.5184 447.023L77.0368 762.976L82.9785 763.022L85.4601 447.07Z" fill="#DCAD71"/>
</g>
<g style="mix-blend-mode:multiply" opacity="0.45">
<path d="M102.513 447.204L96.5714 447.157L94.0899 763.11L100.032 763.156L102.513 447.204Z" fill="#DCAD71"/>
</g>
<g style="mix-blend-mode:multiply" opacity="0.45">
<path d="M119.566 447.338L113.625 447.291L111.143 763.244L117.085 763.29L119.566 447.338Z" fill="#DCAD71"/>
</g>
<g style="mix-blend-mode:multiply" opacity="0.45">
<path d="M136.608 447.471L130.666 447.425L128.184 763.377L134.126 763.424L136.608 447.471Z" fill="#DCAD71"/>
</g>
<g style="mix-blend-mode:multiply" opacity="0.45">
<path d="M153.649 447.605L147.707 447.559L145.225 763.511L151.167 763.558L153.649 447.605Z" fill="#DCAD71"/>
</g>
<g style="mix-blend-mode:multiply" opacity="0.45">
<path d="M170.702 447.739L164.76 447.693L162.279 763.645L168.22 763.692L170.702 447.739Z" fill="#DCAD71"/>
</g>
<g style="mix-blend-mode:multiply" opacity="0.45">
<path d="M187.731 447.873L181.79 447.826L179.308 763.779L185.25 763.826L187.731 447.873Z" fill="#DCAD71"/>
</g>
<g style="mix-blend-mode:multiply" opacity="0.45">
<path d="M204.772 448.007L198.831 447.96L196.349 763.913L202.291 763.959L204.772 448.007Z" fill="#DCAD71"/>
</g>
<path d="M99.5884 550.529L88.0842 550.434L88.7958 460.204C88.8195 457.025 91.4168 454.475 94.5953 454.499C97.7738 454.523 100.324 457.12 100.3 460.298L99.5884 550.529ZM113.595 454.653C110.417 454.629 107.819 457.179 107.795 460.358L107.084 550.589L118.588 550.684L119.3 460.453C119.323 457.274 116.774 454.677 113.595 454.653ZM135.026 454.819L130.152 454.784C128.325 454.772 126.831 456.242 126.807 458.069L126.072 550.743L137.576 550.838L138.311 458.164C138.323 456.337 136.852 454.843 135.026 454.819ZM154.026 454.973L149.151 454.938C147.325 454.926 145.831 456.397 145.807 458.223L145.071 550.897L156.576 550.992L157.311 458.318C157.323 456.491 155.852 454.997 154.026 454.973ZM170.582 455.104C167.404 455.08 164.807 457.63 164.783 460.808L164.071 551.039L175.575 551.134L176.287 460.903C176.311 457.725 173.761 455.128 170.582 455.104ZM189.582 455.258C186.404 455.234 183.806 457.784 183.783 460.963L183.071 551.194L194.575 551.288L195.287 461.058C195.31 457.879 192.761 455.282 189.582 455.258Z" fill="#BB773B"/>
<path d="M113.583 454.653C110.405 454.629 107.807 457.239 107.784 460.488L107.76 464.011C107.784 460.761 110.381 458.14 113.559 458.176C116.738 458.199 119.288 460.856 119.264 464.106L119.288 460.583C119.312 457.333 116.762 454.677 113.583 454.653Z" fill="#89421C"/>
<path d="M94.5953 454.499C91.4168 454.475 88.8195 457.084 88.7958 460.334L88.772 463.856C88.7958 460.607 91.3931 457.986 94.5716 458.021C97.7501 458.045 100.3 460.702 100.276 463.951L100.3 460.429C100.324 457.179 97.7738 454.523 94.5953 454.499Z" fill="#89421C"/>
<path d="M132.583 454.795C129.404 454.772 126.807 457.381 126.783 460.631L126.76 464.153C126.783 460.903 129.381 458.282 132.559 458.318C135.738 458.353 138.288 460.998 138.264 464.248L138.288 460.725C138.311 457.476 135.761 454.819 132.583 454.795Z" fill="#89421C"/>
<path d="M189.57 455.246C186.392 455.222 183.794 457.832 183.771 461.081L183.747 464.604C183.771 461.354 186.368 458.733 189.546 458.769C192.725 458.792 195.275 461.449 195.251 464.699L195.275 461.176C195.299 457.926 192.749 455.27 189.57 455.246Z" fill="#89421C"/>
<path d="M170.582 455.104C167.404 455.08 164.806 457.689 164.783 460.939L164.759 464.461C164.783 461.212 167.38 458.591 170.559 458.626C173.737 458.65 176.287 461.307 176.263 464.556L176.287 461.034C176.311 457.784 173.761 455.128 170.582 455.104Z" fill="#89421C"/>
<path d="M151.583 454.95C148.404 454.926 145.807 457.535 145.783 460.785L145.759 464.307C145.783 461.058 148.38 458.436 151.559 458.472C154.737 458.496 157.287 461.152 157.264 464.402L157.287 460.88C157.311 457.63 154.761 454.973 151.583 454.95Z" fill="#89421C"/>
<path d="M98.77 653.877L87.2658 653.782L87.93 569.873C87.9537 566.694 90.551 564.145 93.7295 564.168C96.908 564.192 99.4579 566.789 99.4342 569.968L98.77 653.877ZM112.717 564.311C109.539 564.287 106.942 566.837 106.918 570.015L106.254 653.925L117.758 654.02L118.422 570.11C118.446 566.932 115.896 564.334 112.717 564.311ZM134.148 564.477L129.274 564.441C127.447 564.429 125.953 565.9 125.929 567.726L125.253 654.079L136.758 654.174L137.434 567.821C137.445 565.995 135.975 564.5 134.148 564.477ZM153.148 564.631L148.274 564.595C146.447 564.583 144.953 566.054 144.929 567.88L144.253 654.233L155.757 654.328L156.433 567.975C156.445 566.149 154.975 564.654 153.148 564.631ZM169.705 564.761C166.526 564.738 163.929 567.287 163.905 570.466L163.241 654.375L174.745 654.47L175.409 570.561C175.433 567.382 172.883 564.785 169.705 564.761ZM188.704 564.915C185.526 564.892 182.929 567.442 182.905 570.62L182.241 654.53L193.745 654.624L194.409 570.715C194.433 567.536 191.883 564.939 188.704 564.915Z" fill="#BB773B"/>
<path d="M112.729 564.311C109.551 564.287 106.953 566.896 106.93 570.146L106.906 573.668C106.93 570.419 109.527 567.797 112.705 567.833C115.884 567.857 118.434 570.513 118.41 573.763L118.434 570.241C118.458 566.991 115.908 564.334 112.729 564.311Z" fill="#89421C"/>
<path d="M93.7295 564.168C90.551 564.145 87.9537 566.754 87.93 570.003L87.9062 573.526C87.93 570.276 90.5273 567.655 93.7058 567.691C96.8843 567.714 99.4342 570.371 99.4104 573.621L99.4342 570.098C99.4579 566.849 96.908 564.192 93.7295 564.168Z" fill="#89421C"/>
<path d="M131.717 564.465C128.539 564.441 125.941 567.05 125.918 570.3L125.894 573.822C125.918 570.573 128.515 567.952 131.693 567.987C134.872 568.011 137.422 570.668 137.398 573.917L137.422 570.395C137.445 567.145 134.896 564.488 131.717 564.465Z" fill="#89421C"/>
<path d="M188.704 564.915C185.526 564.892 182.929 567.501 182.905 570.751L182.881 574.273C182.905 571.023 185.502 568.402 188.681 568.438C191.859 568.462 194.409 571.118 194.385 574.368L194.409 570.845C194.433 567.596 191.883 564.939 188.704 564.915Z" fill="#89421C"/>
<path d="M169.717 564.761C166.538 564.738 163.941 567.347 163.917 570.596L163.893 574.119C163.917 570.869 166.514 568.248 169.693 568.284C172.871 568.307 175.421 570.964 175.397 574.214L175.421 570.691C175.445 567.442 172.895 564.785 169.717 564.761Z" fill="#89421C"/>
<path d="M150.717 564.619C147.538 564.595 144.941 567.204 144.917 570.454L144.894 573.976C144.917 570.727 147.515 568.106 150.693 568.141C153.872 568.165 156.421 570.822 156.398 574.071L156.421 570.549C156.445 567.299 153.895 564.643 150.717 564.619Z" fill="#89421C"/>
<path d="M211.103 545.493L71.6693 544.398L71.5763 556.234L211.01 557.329L211.103 545.493Z" fill="#C58446"/>
<path d="M211.076 548.98L71.6418 547.885L71.6037 552.747L211.037 553.842L211.076 548.98Z" fill="#89421C"/>
<path d="M71.8715 285.636C71.1836 285.636 70.6381 285.067 70.6381 284.379L70.8516 256.935C70.8516 256.247 71.4208 255.702 72.1087 255.702C72.7966 255.702 73.3422 256.271 73.3422 256.959L73.1287 284.403C73.1287 285.091 72.5594 285.636 71.8715 285.636Z" fill="#C58446"/>
<path d="M76.8765 264.027L67.1868 263.956C66.499 263.956 65.9534 263.387 65.9534 262.699C65.9534 262.011 66.5227 261.466 67.2106 261.466L76.9002 261.537C77.5881 261.537 78.1336 262.106 78.1336 262.794C78.1336 263.482 77.5643 264.027 76.8765 264.027Z" fill="#C58446"/>
<path d="M76.5918 301.517L66.9022 301.446L67.0801 279.564C67.1038 276.884 69.2861 274.737 71.9664 274.761C74.6468 274.784 76.7934 276.967 76.7697 279.647L76.5918 301.529V301.517Z" fill="#89421C"/>
<path d="M214.962 286.763C214.275 286.763 213.729 286.194 213.729 285.506L213.942 258.062C213.942 257.374 214.512 256.828 215.2 256.828C215.888 256.828 216.433 257.398 216.433 258.086L216.22 285.53C216.22 286.217 215.65 286.763 214.962 286.763Z" fill="#C58446"/>
<path d="M219.979 265.154L210.29 265.083C209.602 265.083 209.056 264.514 209.056 263.826C209.056 263.138 209.625 262.592 210.313 262.592L220.003 262.663C220.691 262.663 221.236 263.233 221.236 263.921C221.236 264.608 220.667 265.154 219.979 265.154Z" fill="#C58446"/>
<path d="M219.683 302.644L209.993 302.572L210.171 280.691C210.195 278.01 212.377 275.864 215.057 275.887C217.738 275.911 219.884 278.093 219.861 280.774L219.683 302.655V302.644Z" fill="#89421C"/>
<path d="M210.245 269.619L76.8479 268.571L76.5893 301.505L209.986 302.553L210.245 269.619Z" fill="#E3BA7C"/>
<g style="mix-blend-mode:multiply" opacity="0.45">
<path d="M86.873 268.661L80.9313 268.615L80.6402 305.676L86.5819 305.723L86.873 268.661Z" fill="#DCAD71"/>
</g>
<g style="mix-blend-mode:multiply" opacity="0.45">
<path d="M103.914 268.795L97.9725 268.749L97.6814 305.81L103.623 305.857L103.914 268.795Z" fill="#DCAD71"/>
</g>
<g style="mix-blend-mode:multiply" opacity="0.45">
<path d="M120.955 268.917L115.014 268.871L114.723 305.932L120.664 305.979L120.955 268.917Z" fill="#DCAD71"/>
</g>
<g style="mix-blend-mode:multiply" opacity="0.45">
<path d="M137.997 269.051L132.055 269.004L131.764 306.066L137.706 306.112L137.997 269.051Z" fill="#DCAD71"/>
</g>
<g style="mix-blend-mode:multiply" opacity="0.45">
<path d="M155.05 269.197L149.108 269.15L148.817 306.211L154.759 306.258L155.05 269.197Z" fill="#DCAD71"/>
</g>
<g style="mix-blend-mode:multiply" opacity="0.45">
<path d="M172.091 269.331L166.149 269.284L165.858 306.345L171.8 306.392L172.091 269.331Z" fill="#DCAD71"/>
</g>
<g style="mix-blend-mode:multiply" opacity="0.45">
<path d="M189.132 269.453L183.191 269.406L182.9 306.467L188.841 306.514L189.132 269.453Z" fill="#DCAD71"/>
</g>
<g style="mix-blend-mode:multiply" opacity="0.45">
<path d="M206.174 269.598L200.232 269.552L199.941 306.613L205.882 306.66L206.174 269.598Z" fill="#DCAD71"/>
</g>
<path d="M101.51 306.166L90.0055 306.071L90.1953 281.592C90.219 278.414 92.8163 275.864 95.9948 275.887C99.1733 275.911 101.723 278.508 101.699 281.687L101.51 306.166ZM120.699 281.841C120.723 278.663 118.173 276.065 114.995 276.042C111.816 276.018 109.219 278.568 109.195 281.746L109.005 306.225L120.509 306.32L120.699 281.841ZM136.426 276.208L131.551 276.172C129.725 276.16 128.23 277.631 128.207 279.457L127.993 306.379L139.497 306.474L139.711 279.552C139.723 277.726 138.252 276.231 136.426 276.208ZM155.425 276.362L150.551 276.326C148.724 276.314 147.23 277.785 147.206 279.611L146.993 306.534L158.497 306.629L158.71 279.706C158.722 277.88 157.252 276.386 155.425 276.362ZM177.686 282.292C177.71 279.113 175.16 276.516 171.982 276.492C168.803 276.469 166.206 279.018 166.182 282.197L165.993 306.676L177.497 306.771L177.686 282.292ZM196.686 282.446C196.71 279.267 194.16 276.67 190.982 276.646C187.803 276.623 185.206 279.173 185.182 282.351L184.992 306.83L196.496 306.925L196.686 282.446Z" fill="#BB773B"/>
<path d="M114.995 276.042C111.816 276.018 109.219 278.568 109.195 281.746L109.171 285.197C109.195 282.019 111.792 279.469 114.971 279.493C118.149 279.517 120.699 282.114 120.675 285.292L120.699 281.841C120.723 278.663 118.173 276.065 114.995 276.042Z" fill="#89421C"/>
<path d="M133.994 276.184C130.816 276.16 128.218 278.71 128.195 281.889L128.171 285.34C128.195 282.161 130.792 279.611 133.971 279.635C137.149 279.659 139.699 282.256 139.675 285.435L139.699 281.983C139.723 278.805 137.173 276.208 133.994 276.184Z" fill="#89421C"/>
<path d="M95.9948 275.887C92.8164 275.864 90.219 278.414 90.1953 281.592L90.1716 285.043C90.1953 281.865 92.7926 279.315 95.9711 279.339C99.1496 279.362 101.699 281.96 101.676 285.138L101.699 281.687C101.723 278.508 99.1733 275.911 95.9948 275.887Z" fill="#89421C"/>
<path d="M171.982 276.48C168.803 276.457 166.206 279.007 166.182 282.185L166.159 285.636C166.182 282.458 168.78 279.908 171.958 279.932C175.137 279.955 177.686 282.553 177.663 285.731L177.686 282.28C177.71 279.101 175.16 276.504 171.982 276.48Z" fill="#89421C"/>
<path d="M190.982 276.635C187.803 276.611 185.206 279.161 185.182 282.339L185.158 285.79C185.182 282.612 187.779 280.062 190.958 280.086C194.136 280.11 196.686 282.707 196.663 285.885L196.686 282.434C196.71 279.256 194.16 276.658 190.982 276.635Z" fill="#89421C"/>
<path d="M152.994 276.338C149.815 276.314 147.218 278.864 147.194 282.043L147.171 285.494C147.194 282.315 149.792 279.766 152.97 279.789C156.149 279.813 158.699 282.41 158.675 285.589L158.699 282.138C158.722 278.959 156.172 276.362 152.994 276.338Z" fill="#89421C"/>
<path d="M210.242 269.637C210.242 269.637 184.743 258.584 185.04 222.15L102.802 221.497C102.518 257.943 76.8527 268.582 76.8527 268.582" fill="#5A3C2C"/>
<path d="M219.688 302.635L66.9 301.435L65.7573 446.917L218.545 448.117L219.688 302.635Z" fill="#E3BA7C"/>
<g style="mix-blend-mode:multiply" opacity="0.45">
<path d="M75.8596 310.413L71.009 310.375L70.0062 438.044L74.8568 438.082L75.8596 310.413Z" fill="#DCAD71"/>
</g>
<g style="mix-blend-mode:multiply" opacity="0.45">
<path d="M88.5485 310.512L83.6979 310.474L82.6952 438.143L87.5458 438.181L88.5485 310.512Z" fill="#DCAD71"/>
</g>
<g style="mix-blend-mode:multiply" opacity="0.45">
<path d="M101.238 310.612L96.387 310.574L95.3843 438.243L100.235 438.281L101.238 310.612Z" fill="#DCAD71"/>
</g>
<g style="mix-blend-mode:multiply" opacity="0.45">
<path d="M113.927 310.712L109.076 310.674L108.073 438.343L112.924 438.381L113.927 310.712Z" fill="#DCAD71"/>
</g>
<g style="mix-blend-mode:multiply" opacity="0.45">
<path d="M126.616 310.812L121.765 310.773L120.762 438.442L125.613 438.481L126.616 310.812Z" fill="#DCAD71"/>
</g>
<g style="mix-blend-mode:multiply" opacity="0.45">
<path d="M139.305 310.911L134.454 310.873L133.451 438.542L138.302 438.58L139.305 310.911Z" fill="#DCAD71"/>
</g>
<g style="mix-blend-mode:multiply" opacity="0.45">
<path d="M151.994 311.011L147.143 310.973L146.14 438.642L150.991 438.68L151.994 311.011Z" fill="#DCAD71"/>
</g>
<g style="mix-blend-mode:multiply" opacity="0.45">
<path d="M164.695 311.099L159.844 311.061L158.841 438.73L163.692 438.768L164.695 311.099Z" fill="#DCAD71"/>
</g>
<g style="mix-blend-mode:multiply" opacity="0.45">
<path d="M177.384 311.21L172.533 311.172L171.53 438.841L176.381 438.879L177.384 311.21Z" fill="#DCAD71"/>
</g>
<g style="mix-blend-mode:multiply" opacity="0.45">
<path d="M190.073 311.31L185.222 311.272L184.219 438.941L189.07 438.979L190.073 311.31Z" fill="#DCAD71"/>
</g>
<g style="mix-blend-mode:multiply" opacity="0.45">
<path d="M202.762 311.409L197.911 311.371L196.908 439.04L201.759 439.078L202.762 311.409Z" fill="#DCAD71"/>
</g>
<g style="mix-blend-mode:multiply" opacity="0.45">
<path d="M215.451 311.509L210.6 311.471L209.597 439.14L214.448 439.178L215.451 311.509Z" fill="#DCAD71"/>
</g>
<path d="M219.688 302.639L66.9 301.439L66.83 310.346L219.618 311.546L219.688 302.639Z" fill="#89421C"/>
<path d="M219.699 302.64L66.9118 301.44L66.8769 305.887L219.665 307.087L219.699 302.64Z" fill="#C58446"/>
<path d="M218.615 439.218L65.8273 438.018L65.7573 446.925L218.545 448.125L218.615 439.218Z" fill="#89421C"/>
<path d="M218.58 443.666L65.7924 442.466L65.7574 446.913L218.545 448.113L218.58 443.666Z" fill="#C58446"/>
<path d="M198.345 320.021L87.9672 319.154L87.1002 429.532L197.478 430.399L198.345 320.021Z" stroke="#89421C" stroke-miterlimit="10"/>
<path d="M193.958 422.821L194.706 327.561C192.5 327.549 190.732 325.747 190.744 323.541L95.4848 322.794C95.4729 325 93.6702 326.767 91.4642 326.755L90.717 422.014C92.923 422.026 94.6901 423.829 94.6783 426.035L189.938 426.782C189.95 424.576 191.752 422.809 193.958 422.821Z" fill="#C58446"/>
<path d="M189.071 381.734C192.893 356.131 175.236 332.278 149.634 328.457C124.032 324.635 100.179 342.292 96.357 367.894C92.5353 393.496 110.192 417.349 135.794 421.171C161.397 424.993 185.249 407.336 189.071 381.734Z" fill="#FAEFC0"/>
<path d="M182.577 379.497C185.167 357.484 169.421 337.539 147.407 334.949C125.393 332.359 105.448 348.105 102.858 370.119C100.268 392.132 116.015 412.077 138.028 414.667C160.042 417.257 179.987 401.511 182.577 379.497Z" stroke="#89421C" stroke-width="1.3" stroke-miterlimit="10"/>
<path d="M172.317 388.739C180.043 372.387 173.05 352.869 156.699 345.143C140.347 337.417 120.829 344.41 113.103 360.761C105.377 377.113 112.369 396.631 128.721 404.357C145.072 412.083 164.591 405.09 172.317 388.739Z" stroke="#89421C" stroke-width="0.6" stroke-miterlimit="10"/>
<path d="M151.303 402.231C166.469 397.487 174.917 381.347 170.173 366.181C165.429 351.016 149.289 342.567 134.123 347.311C118.958 352.055 110.509 368.195 115.253 383.361C119.997 398.527 136.137 406.975 151.303 402.231Z" stroke="#89421C" stroke-width="0.6" stroke-miterlimit="10"/>
<path d="M144.858 374.8C144.858 375.986 143.886 376.935 142.7 376.935C141.514 376.935 140.565 375.962 140.565 374.776C140.565 373.59 141.537 372.641 142.723 372.641C143.909 372.641 144.858 373.614 144.858 374.8Z" fill="#89421C"/>
<path d="M143.032 334.642L142.937 346.004" stroke="#89421C" stroke-width="0.75" stroke-miterlimit="10"/>
<path d="M142.486 403.56L142.403 414.922" stroke="#89421C" stroke-width="0.75" stroke-miterlimit="10"/>
<path d="M182.857 375.096L171.484 375.001" stroke="#89421C" stroke-width="0.75" stroke-miterlimit="10"/>
<path d="M113.939 374.551L102.577 374.468" stroke="#89421C" stroke-width="0.75" stroke-miterlimit="10"/>
<path d="M114.556 346.17L122.526 354.27" stroke="#89421C" stroke-width="0.75" stroke-miterlimit="10"/>
<path d="M162.897 395.282L170.867 403.382" stroke="#89421C" stroke-width="0.75" stroke-miterlimit="10"/>
<path d="M171.318 346.62L163.217 354.59" stroke="#89421C" stroke-width="0.75" stroke-miterlimit="10"/>
<path d="M122.205 394.962L114.105 402.944" stroke="#89421C" stroke-width="0.75" stroke-miterlimit="10"/>
<path d="M127.649 337.571L131.907 348.103" stroke="#89421C" stroke-width="0.75" stroke-miterlimit="10"/>
<path d="M153.516 401.449L157.785 411.981" stroke="#89421C" stroke-width="0.75" stroke-miterlimit="10"/>
<path d="M179.916 359.714L169.385 363.972" stroke="#89421C" stroke-width="0.75" stroke-miterlimit="10"/>
<path d="M116.038 385.581L105.507 389.85" stroke="#89421C" stroke-width="0.75" stroke-miterlimit="10"/>
<path d="M105.756 359.133L116.216 363.556" stroke="#89421C" stroke-width="0.75" stroke-miterlimit="10"/>
<path d="M169.207 385.996L179.679 390.431" stroke="#89421C" stroke-width="0.75" stroke-miterlimit="10"/>
<path d="M158.367 337.82L153.931 348.281" stroke="#89421C" stroke-width="0.75" stroke-miterlimit="10"/>
<path d="M131.492 401.283L127.056 411.744" stroke="#89421C" stroke-width="0.75" stroke-miterlimit="10"/>
<path d="M142.64 374.776C142.51 370.317 142.308 361.35 142.237 356.903C142.012 350.925 142.035 344.972 142.913 339.03H143.067C144.265 347.617 143.364 357.176 143.162 365.845L142.783 374.776H142.628H142.64Z" fill="#5C301C"/>
<path d="M142.771 374.729C144.787 376.543 148.807 380.232 150.776 382.094C153.516 384.513 156.078 387.051 158.011 390.218L157.904 390.324C153.362 387.514 149.863 382.781 146.257 378.927L142.664 374.835L142.771 374.729Z" fill="#5C301C"/>
<path d="M107.796 172.966C107.108 172.966 106.562 172.397 106.562 171.709L106.776 144.265C106.776 143.577 107.345 143.032 108.033 143.032C108.721 143.032 109.266 143.601 109.266 144.289L109.053 171.733C109.053 172.421 108.483 172.966 107.796 172.966Z" fill="#C58446"/>
<path d="M112.812 151.357L103.123 151.286C102.435 151.286 101.889 150.717 101.889 150.029C101.889 149.341 102.458 148.796 103.146 148.796L112.836 148.867C113.524 148.867 114.069 149.436 114.069 150.124C114.069 150.812 113.5 151.357 112.812 151.357Z" fill="#C58446"/>
<path d="M112.516 188.847L102.826 188.776L103.004 166.894C103.028 164.214 105.21 162.067 107.89 162.091C110.571 162.114 112.717 164.297 112.694 166.977L112.516 188.859V188.847Z" fill="#89421C"/>
<path d="M180.545 174.71C179.857 174.71 179.311 174.14 179.311 173.453L179.525 146.008C179.525 145.321 180.094 144.775 180.782 144.775C181.47 144.775 182.015 145.344 182.015 146.032L181.802 173.476C181.802 174.164 181.233 174.71 180.545 174.71Z" fill="#C58446"/>
<path d="M185.561 153.101L175.872 153.03C175.184 153.03 174.638 152.46 174.638 151.772C174.638 151.085 175.208 150.539 175.896 150.539L185.585 150.61C186.273 150.61 186.819 151.179 186.819 151.867C186.819 152.555 186.249 153.101 185.561 153.101Z" fill="#C58446"/>
<path d="M185.265 190.59L175.575 190.519L175.753 168.637C175.777 165.957 177.959 163.81 180.64 163.834C183.32 163.858 185.467 166.04 185.443 168.72L185.265 190.602V190.59Z" fill="#89421C"/>
<path d="M185.392 182.8L102.884 182.152L102.575 221.491L185.083 222.139L185.392 182.8Z" fill="#E3BA7C"/>
<path d="M185.38 182.801L102.872 182.153L102.82 188.783L185.328 189.431L185.38 182.801Z" fill="#C58446"/>
<path d="M121.339 201.276C121.363 198.098 118.813 195.5 115.635 195.477C112.456 195.453 109.859 198.003 109.835 201.181L109.669 221.545L121.173 221.64L121.339 201.276ZM137.066 195.643L132.191 195.607C130.365 195.595 128.87 197.066 128.847 198.892L128.669 221.687L140.173 221.782L140.351 198.987C140.363 197.161 138.892 195.666 137.066 195.643ZM156.065 195.797L151.191 195.761C149.365 195.749 147.87 197.22 147.846 199.046L147.669 221.841L159.173 221.936L159.351 199.141C159.363 197.315 157.892 195.821 156.065 195.797ZM178.327 201.727C178.35 198.548 175.8 195.951 172.622 195.927C169.444 195.904 166.846 198.453 166.822 201.632L166.656 221.996L178.161 222.09L178.327 201.727Z" fill="#BB773B"/>
<path d="M134.623 195.631C131.444 195.607 128.847 198.157 128.823 201.335L128.799 204.787C128.823 201.608 131.421 199.058 134.599 199.082C137.778 199.106 140.327 201.703 140.304 204.882L140.327 201.43C140.351 198.252 137.801 195.654 134.623 195.631Z" fill="#89421C"/>
<path d="M115.635 195.477C112.456 195.453 109.859 198.003 109.835 201.181L109.812 204.633C109.835 201.454 112.433 198.904 115.611 198.928C118.79 198.952 121.34 201.549 121.316 204.727L121.34 201.276C121.363 198.098 118.813 195.5 115.635 195.477Z" fill="#89421C"/>
<path d="M172.622 195.927C169.444 195.904 166.846 198.453 166.823 201.632L166.799 205.083C166.823 201.905 169.42 199.355 172.598 199.379C175.777 199.402 178.327 202 178.303 205.178L178.327 201.727C178.351 198.548 175.801 195.951 172.622 195.927Z" fill="#89421C"/>
<path d="M153.623 195.773C150.444 195.749 147.847 198.299 147.823 201.478L147.799 204.929C147.823 201.751 150.42 199.201 153.599 199.224C156.777 199.248 159.327 201.845 159.303 205.024L159.327 201.573C159.351 198.394 156.801 195.797 153.623 195.773Z" fill="#89421C"/>
<path d="M184.696 263.636L169.894 263.517L170.025 247.435C170.06 243.344 173.393 240.058 177.485 240.094C181.577 240.129 184.862 243.462 184.826 247.554L184.696 263.636Z" fill="#4E3124"/>
<path d="M162.233 263.458L147.432 263.34L147.562 247.257C147.598 243.166 150.93 239.88 155.022 239.916C159.114 239.952 162.399 243.284 162.363 247.376L162.233 263.458Z" fill="#4E3124"/>
<path d="M129.403 239.714L135.677 239.764C138.025 239.782 139.931 241.707 139.913 244.067L139.762 263.279L124.961 263.163L125.112 243.951C125.131 241.602 127.055 239.696 129.415 239.715L129.403 239.714Z" fill="#4E3124"/>
<path d="M117.295 263.102L102.494 262.984L102.624 246.902C102.66 242.81 105.993 239.525 110.084 239.56C114.176 239.596 117.461 242.928 117.426 247.02L117.295 263.102Z" fill="#4E3124"/>
<path d="M170.25 236.465L162.85 236.405L162.909 228.364C162.921 226.324 164.593 224.676 166.645 224.688C168.685 224.7 170.333 226.372 170.321 228.424L170.262 236.465H170.25Z" fill="#4E3124"/>
<path d="M142.331 224.506L145.474 224.53C146.648 224.539 147.601 225.508 147.592 226.682L147.517 236.288L140.116 236.23L140.192 226.624C140.201 225.45 141.169 224.496 142.343 224.506L142.331 224.506Z" fill="#4E3124"/>
<path d="M119.586 224.327L122.729 224.352C123.903 224.361 124.856 225.329 124.847 226.503L124.771 236.109L117.371 236.051L117.446 226.445C117.455 225.271 118.424 224.318 119.598 224.327L119.586 224.327Z" fill="#4E3124"/>
<path d="M185.384 182.798C185.384 182.798 149.305 162.529 149.709 110.974L139.663 110.891C139.26 162.446 102.862 182.146 102.862 182.146" fill="#5A3C2C"/>
<path d="M145.048 65.2775L143.447 109.266L145.961 109.29L145.048 65.2775Z" fill="#C58446"/>
<path d="M122.727 167.212L125.869 167.237C127.043 167.246 127.997 168.214 127.987 169.388L127.912 178.994L120.511 178.936L120.587 169.33C120.596 168.156 121.564 167.203 122.738 167.212L122.727 167.212Z" fill="#4E3124"/>
<path d="M136.02 167.316L139.163 167.341C140.337 167.35 141.29 168.318 141.281 169.492L141.206 179.099L133.805 179.041L133.881 169.434C133.89 168.26 134.858 167.307 136.032 167.316L136.02 167.316Z" fill="#4E3124"/>
<path d="M154.5 179.205L147.099 179.145L147.159 171.104C147.171 169.064 148.843 167.416 150.895 167.428C152.935 167.44 154.583 169.112 154.571 171.164L154.512 179.205H154.5Z" fill="#4E3124"/>
<path d="M167.807 179.311L160.406 179.252L160.466 171.211C160.478 169.171 162.15 167.523 164.202 167.534C166.242 167.546 167.89 169.218 167.878 171.27L167.819 179.311H167.807Z" fill="#4E3124"/>
<path d="M137.09 161.438L131.539 161.391L131.587 155.366C131.598 153.836 132.856 152.603 134.386 152.614C135.916 152.626 137.149 153.883 137.137 155.413L137.09 161.438Z" fill="#4E3124"/>
<path d="M147.064 161.521L141.513 161.474L141.561 155.449C141.573 153.919 142.83 152.686 144.36 152.697C145.89 152.709 147.123 153.966 147.111 155.496L147.064 161.521Z" fill="#4E3124"/>
<path d="M157.038 161.592L151.488 161.545L151.535 155.52C151.547 153.99 152.804 152.757 154.334 152.769C155.864 152.78 157.098 154.038 157.086 155.568L157.038 161.592Z" fill="#4E3124"/>
<path d="M142.498 145.712L137.695 145.676L137.73 140.458C137.73 139.13 138.821 138.062 140.15 138.074C141.478 138.074 142.545 139.165 142.533 140.494L142.498 145.712Z" fill="#4E3124"/>
<path d="M151.144 145.771L146.34 145.736L146.376 140.517C146.376 139.189 147.467 138.122 148.795 138.133C150.124 138.133 151.191 139.225 151.179 140.553L151.144 145.771Z" fill="#4E3124"/>
<path d="M147.171 132.642L141.881 132.595L141.929 126.843C141.929 125.384 143.138 124.21 144.597 124.222C146.056 124.222 147.23 125.431 147.218 126.89L147.171 132.642Z" fill="#4E3124"/>
<path d="M145.866 104.854L143.613 104.842L139.675 110.903L149.709 110.974L145.866 104.854Z" fill="#89421C"/>
</g>
<path d="M517.725 350.843L521.638 374.408L558.57 331.831L554.657 308.265L517.725 350.843Z" fill="#FFFEFF"/>
<path d="M557.408 304.577L503.706 294.092C498.416 293.061 493.637 294.164 490.565 297.129L447.015 339.232L521.733 347.332L557.408 304.577Z" fill="#4475FE"/>
<g style="mix-blend-mode:multiply" opacity="0.33">
<path d="M503.694 294.104C498.405 293.072 493.625 294.175 490.553 297.14L463.916 322.9C469.869 328.854 476.452 333.966 484.647 336.871C490.767 338.828 497.195 333.479 502.662 331.191C519.705 322.889 537.365 311.882 555.843 306.451L557.396 304.577L503.694 294.092V294.104Z" fill="#457B9D"/>
</g>
<path d="M562.71 336.551L562.01 332.353L526.335 375.108L527.035 379.318L562.71 336.551Z" fill="#261A6C"/>
<path d="M524.176 374.788L461.461 365.335C460.5 365.193 459.551 364.944 458.626 364.624C452.257 362.513 447.762 357.259 446.826 351.649C445.889 346.027 448.842 341.9 454.819 341.651C455.685 341.604 456.598 341.627 457.559 341.77L457.891 341.817L520.274 351.222L522.433 351.542L521.733 347.344L519.575 347.024L456.859 337.571C447.371 336.136 440.848 342.149 442.307 350.961C443.766 359.773 452.672 368.111 462.16 369.546L524.876 378.998L527.035 379.318L526.335 375.12L524.176 374.8V374.788Z" fill="#5E88FE"/>
<path d="M558.108 308.787L557.408 304.577L521.733 347.344L522.421 351.542L558.108 308.787Z" fill="#261A6C"/>
<path d="M456.586 341.627C455.602 341.485 454.701 341.449 453.858 341.509C448.533 341.865 445.983 346.051 446.92 351.661C447.857 357.271 451.961 362.465 457.666 364.482C458.579 364.802 459.516 365.051 460.5 365.193L521.65 374.408L517.736 350.843L456.586 341.627Z" fill="#FFFEFF"/>
<path d="M456.586 341.627C455.602 341.485 454.701 341.449 453.858 341.509C448.533 341.865 445.983 346.051 446.92 351.661C447.857 357.271 451.961 362.465 457.666 364.482C458.579 364.802 459.516 365.051 460.5 365.193L521.65 374.408L517.736 350.843L456.586 341.627Z" fill="#FFEDFF"/>
<path d="M562.01 332.353L558.57 331.831L521.638 374.408L526.335 375.108L562.01 332.353Z" fill="#4475FE"/>
<path d="M465.588 353.381L455.294 351.673C453.859 353.286 452.756 355.148 451.937 357.14C454.724 357.864 457.298 359.133 459.86 360.271C462.161 355.883 465.576 353.369 465.576 353.369L465.588 353.381Z" fill="#FFBA15"/>
<path d="M457.962 366.367C458.235 364.066 458.958 362.027 459.871 360.283C457.298 359.145 454.736 357.876 451.949 357.152C451.19 359.038 450.704 361.054 450.49 363.106C453.076 363.983 455.59 365.063 457.974 366.367H457.962Z" fill="#FFCA4A"/>
<path d="M457.962 366.367C455.578 365.063 453.064 363.983 450.478 363.106C449.968 367.897 450.917 372.902 453.265 377.018C453.111 374.954 453.799 372.843 455.139 371.266C456.231 373.697 458.176 375.95 460.346 377.492C458.104 373.341 457.583 369.593 457.962 366.367Z" fill="#FFBA15"/>
<path d="M65.3723 392.685C66.0958 392.744 66.7125 392.483 66.7481 392.092L76.6512 280.525C76.6868 280.133 76.1294 279.766 75.4059 279.706C74.6824 279.647 74.0657 279.908 74.0301 280.299L64.127 391.866C64.0915 392.258 64.6489 392.625 65.3723 392.685Z" fill="#EE1413"/>
<path d="M111.757 331.724C111.354 336.302 110.203 340.643 108.436 344.628C101.569 360.176 85.3683 370.352 67.4953 368.763C66.3804 368.668 65.2893 368.526 64.21 368.336C47.5349 365.502 34.6549 352.716 31.2037 336.741C30.3616 332.815 30.077 328.7 30.4565 324.502C32.449 302.051 52.267 285.458 74.718 287.451C80.731 287.985 86.329 289.799 91.2509 292.598C104.724 300.248 113.227 315.274 111.769 331.712L111.757 331.724Z" fill="#426BC6"/>
<path d="M91.239 292.598C91.0611 292.503 86.9219 295.729 86.4475 296.038C84.716 297.164 82.9488 298.244 81.2529 299.441C78.4183 301.458 75.7973 304.197 73.9352 307.139C71.9309 310.305 82.6642 309.487 85.8308 311.029C87.6573 311.918 79.8415 327.834 81.8459 327.811C85.819 327.763 91.5118 314.492 95.1291 316.721C96.2439 317.409 97.8806 318.726 98.3075 320.517C98.6871 322.889 95.6272 324.383 96.0541 326.174C97.5366 329.234 103.301 330.337 100.561 334.772C99.197 336.99 90.6223 329.21 88.0842 331.333C84.8702 334.559 96.7302 350.001 98.9954 350.795C102.826 352.005 105.388 342.612 109.017 343.276C110.464 339.671 111.413 335.792 111.769 331.736C113.227 315.298 104.724 300.272 91.2508 292.622L91.239 292.598Z" fill="#44CCB2"/>
<path d="M64.3286 360.888C64.8268 361.73 65.3842 362.477 66.0009 363.165C65.2656 364.861 64.6489 366.569 64.1982 368.324C47.523 365.49 34.6431 352.705 31.1918 336.729C38.628 335.377 40.9763 325.569 49.1241 323.517C57.7582 343.905 71.1244 320.386 71.8716 321.05C75.6787 324.312 82.4389 352.183 85.1311 354.768C85.1311 354.768 61.7194 357.14 64.3168 360.888H64.3286Z" fill="#44CCB2"/>
<path d="M69.8554 294.923C69.7487 291.246 56.845 293.915 55.742 290.297C44.7478 294.769 36.0307 303.936 32.2829 315.512C35.58 317.931 32.8996 325.937 37.0151 325.688C39.7547 325.522 48.2346 317.006 48.8988 314.338C49.6815 311.183 61.8262 316.615 64.72 314.8C66.6295 313.602 69.9384 297.164 69.8673 294.923H69.8554Z" fill="#44CCB2"/>
<path d="M43.834 388.709L43.7598 389.548C43.7014 390.207 44.1883 390.789 44.8473 390.847L85.8884 394.481C86.5474 394.539 87.1289 394.052 87.1872 393.394L87.2615 392.555C87.3198 391.896 86.8329 391.314 86.1739 391.256L45.1329 387.622C44.4739 387.564 43.8924 388.051 43.834 388.709Z" fill="#FF7E15"/>
<path d="M80.9801 385.936L51.2115 383.292C48.5311 383.054 46.1591 385.023 45.8864 387.704L85.4395 391.214C85.6529 388.534 83.6605 386.174 80.9801 385.936Z" fill="#FF7E15"/>
<path d="M46.93 387.798C46.3489 387.751 45.8389 388.237 45.7796 388.889L45.7084 389.743C45.6491 390.396 46.0761 390.977 46.6454 391.024L82.6879 394.226C83.2691 394.274 83.779 393.788 83.8383 393.135L83.9095 392.281C83.9688 391.629 83.5418 391.048 82.9726 391.001L46.93 387.798Z" fill="#FFBA15"/>
<path d="M78.4539 385.711L52.3026 383.386C49.9425 383.173 47.8433 385.177 47.5823 387.846L82.3203 390.929C82.5338 388.249 80.8141 385.913 78.4539 385.699V385.711Z" fill="#FFBA15"/>
<path d="M50.0018 386.055C50.2864 386.589 50.9506 386.767 51.508 386.814C51.9942 386.85 52.4924 386.885 52.9786 386.933C53.453 386.968 53.9274 386.968 54.4137 386.956C54.6865 386.956 54.9711 386.98 55.232 386.933C55.5167 386.885 55.742 386.802 55.9911 386.636C56.2045 386.494 56.2401 386.079 56.0504 385.901C55.8487 385.711 55.659 385.592 55.3981 385.498C55.1371 385.403 54.8644 385.367 54.6034 385.32C54.1172 385.225 53.6309 385.142 53.1328 385.082C52.6584 385.035 52.184 384.988 51.7096 384.94C51.1285 384.881 50.4406 384.916 50.0492 385.415C49.9187 385.581 49.895 385.865 49.9899 386.043L50.0018 386.055Z" fill="#FFD87A"/>
<path d="M52.7889 389.305C52.3145 389.055 51.6978 388.925 51.1759 388.854C50.6304 388.771 50.0729 388.735 49.5274 388.688C48.9937 388.64 48.46 388.64 47.9381 388.617C47.4163 388.593 46.6098 388.557 46.1947 388.937C45.9456 389.162 45.9219 389.518 46.1235 389.779C46.4556 390.206 47.2147 390.325 47.7247 390.396C48.2702 390.467 48.8158 390.574 49.3613 390.621C49.895 390.668 50.4169 390.728 50.9506 390.751C51.4961 390.775 52.1603 390.751 52.6821 390.597C53.3344 390.396 53.3937 389.637 52.8007 389.316L52.7889 389.305Z" fill="#FFD87A"/>
<path opacity="0.64" d="M111.757 331.712C112.67 321.418 107.523 311.716 98.7582 304.921C96.0186 299.714 92.3183 295.362 87.8945 292.302C83.9925 289.598 79.5332 287.878 74.7062 287.451C64.4235 286.538 54.7458 291.673 47.95 300.414C38.9838 305.11 32.5557 312.736 30.8242 321.857C30.6581 322.723 30.5395 323.6 30.4565 324.49C29.5433 334.772 34.6787 344.474 43.4195 351.27C48.116 360.236 55.742 366.652 64.8624 368.384C65.7281 368.55 66.6058 368.668 67.4953 368.751C77.7898 369.664 87.5031 364.517 94.2989 355.741C99.4936 353.001 103.846 349.313 106.906 344.889C109.61 340.987 111.33 336.528 111.757 331.701V331.712ZM111.543 331.689C111.377 333.622 110.002 335.389 107.487 336.943C106.052 337.82 104.285 338.603 102.269 339.267C102.957 336.622 103.443 333.847 103.692 331.001C103.941 328.131 103.941 325.308 103.728 322.568C108.875 325.355 111.828 328.546 111.543 331.689ZM67.5071 368.538C67.1513 368.502 66.7955 368.431 66.4397 368.312C63.8187 367.447 61.5771 364.185 59.9405 359.263C62.5852 359.951 65.3486 360.437 68.2069 360.686C71.077 360.947 73.8997 360.935 76.6393 360.722C73.8167 365.929 70.6145 368.811 67.5071 368.538ZM68.2187 360.473C65.3605 360.224 62.5615 359.726 59.8574 359.014C58.2563 354.104 57.2482 347.557 57.0466 340.074C61.0553 340.892 65.3605 341.533 69.8673 341.936C74.3741 342.339 78.7267 342.458 82.8184 342.363C81.2885 349.763 79.1655 355.978 76.7579 360.497C73.959 360.722 71.1007 360.734 68.2187 360.473ZM30.6581 324.502C30.6937 324.146 30.7649 323.79 30.8835 323.434C31.7492 320.813 35.0107 318.572 39.9445 316.935C39.2566 319.58 38.7704 322.343 38.5213 325.201C38.2722 328.071 38.2604 330.882 38.4739 333.634C33.2673 330.811 30.3853 327.609 30.67 324.502H30.6581ZM38.7229 325.225C38.9838 322.331 39.482 319.532 40.1817 316.852C45.0917 315.251 51.6266 314.243 59.1221 314.041C58.3038 318.05 57.6633 322.355 57.2601 326.862C56.8924 331.06 56.7501 335.14 56.8094 338.994C56.8094 339.267 56.8213 339.54 56.8331 339.813C49.4325 338.283 43.2179 336.16 38.6992 333.752C38.4739 330.942 38.4739 328.083 38.7229 325.225ZM74.6824 287.653C76.6156 287.819 78.3828 289.194 79.9364 291.709C80.8141 293.144 81.5968 294.911 82.261 296.939C79.6043 296.251 76.841 295.765 73.9827 295.516C71.1126 295.267 68.3018 295.255 65.5621 295.468C68.3492 290.321 71.5277 287.38 74.6824 287.664V287.653ZM73.9708 295.717C76.8647 295.978 79.6636 296.476 82.344 297.176C83.9688 302.181 84.9295 308.763 85.1311 316.105C81.1224 315.286 76.8172 314.646 72.3223 314.255C68.1239 313.887 64.044 313.745 60.1895 313.804C59.9167 313.804 59.644 313.816 59.3712 313.828C60.8774 306.534 63.0003 300.272 65.4316 295.694C68.2425 295.468 71.1007 295.468 73.959 295.717H73.9708ZM82.5931 297.247C88.6535 298.872 94.0973 301.588 98.5803 305.063C101.237 310.163 102.957 316.01 103.49 322.213C98.8887 319.781 92.6266 317.67 85.3564 316.164C85.1548 308.74 84.1823 302.205 82.5931 297.259V297.247ZM69.891 341.722C65.4554 341.331 61.1383 340.702 57.0466 339.86C57.0466 339.576 57.0348 339.291 57.0229 339.006C56.9517 335.081 57.1059 331.001 57.4736 326.897C57.8768 322.379 58.5173 318.062 59.3356 314.053C59.6202 314.053 59.9049 314.041 60.2014 314.029C64.127 313.958 68.2069 314.112 72.3104 314.48C76.8172 314.883 81.1343 315.524 85.143 316.342C85.2497 320.481 85.1192 324.857 84.7279 329.317C84.3365 333.741 83.7079 338.058 82.8658 342.149C78.7267 342.256 74.3504 342.126 69.891 341.734V341.722ZM59.1696 313.839C51.7571 314.041 45.2222 315.014 40.2647 316.591C41.9014 310.507 44.6292 305.051 48.1279 300.544C52.2552 298.386 56.8806 296.88 61.8262 296.109C62.9529 295.931 64.0796 295.812 65.2182 295.705C62.7869 300.307 60.6758 306.569 59.1696 313.828V313.839ZM56.845 340.038C57.0466 347.451 58.0191 353.997 59.6084 358.955C58.1615 358.563 56.7383 358.113 55.3506 357.603C50.9387 355.966 46.9775 353.772 43.5974 351.151C41.427 347 39.8971 342.351 39.1262 337.393C38.9483 336.267 38.8297 335.14 38.7229 334.001C43.3246 336.433 49.5748 338.544 56.845 340.05V340.038ZM83.0437 342.363C90.4681 342.161 97.003 341.177 101.96 339.587C101.569 341.034 101.118 342.469 100.597 343.857C98.9717 348.245 96.7895 352.171 94.1921 355.539C89.0805 358.22 83.2098 359.939 76.9833 360.485C79.4146 355.883 81.5257 349.621 83.0319 342.363H83.0437ZM83.0912 342.137C83.9095 338.129 84.55 333.835 84.9413 329.329C85.3446 324.822 85.4632 320.469 85.3683 316.377C92.6622 317.884 98.9243 320.007 103.502 322.438C103.728 325.237 103.739 328.095 103.479 330.977C103.229 333.835 102.731 336.634 102.02 339.338C97.0148 340.963 90.4325 341.924 83.0793 342.126L83.0912 342.137ZM111.638 330.135C111.01 327.407 108.163 324.727 103.716 322.331C103.206 316.152 101.557 310.388 99.0192 305.395C107.06 311.788 111.923 320.671 111.638 330.135ZM87.7759 292.468C92.1048 295.468 95.6746 299.655 98.3313 304.589C93.8601 301.22 88.4875 298.587 82.51 297.01C81.8222 294.899 81.0157 293.073 80.1143 291.602C78.9758 289.752 77.6712 288.459 76.248 287.842C80.3397 288.447 84.206 290.001 87.764 292.468H87.7759ZM73.1406 287.57C70.4247 288.198 67.7325 291.045 65.3368 295.48C64.1389 295.575 62.9529 295.717 61.7906 295.895C56.9636 296.654 52.4449 298.125 48.4125 300.165C54.8051 292.136 63.6764 287.285 73.1406 287.558V287.57ZM41.4389 304.98C43.3246 303.414 45.412 302.039 47.6298 300.841C44.2497 305.312 41.6049 310.697 40.0157 316.686C35.2361 318.251 31.9627 320.398 30.8479 322.96C30.8953 322.604 30.9546 322.26 31.0258 321.904C32.2592 315.464 35.8528 309.605 41.427 304.98H41.4389ZM30.5751 326.091C31.2155 328.807 34.0501 331.499 38.4857 333.883C38.5806 335.081 38.7229 336.267 38.9008 337.429C39.6599 342.28 41.1305 346.81 43.1941 350.843C35.0345 344.367 30.3023 335.425 30.5751 326.091ZM47.9737 357.781C46.4082 355.895 45.0324 353.808 43.8346 351.59C47.1791 354.116 51.0336 356.227 55.2676 357.804C56.6908 358.338 58.1733 358.801 59.6795 359.204C61.2451 363.983 63.3917 367.257 65.9416 368.36C65.5858 368.312 65.2419 368.253 64.8861 368.182C58.4461 366.949 52.5873 363.355 47.9619 357.781H47.9737ZM69.0845 368.644C71.8005 368.004 74.4927 365.158 76.8765 360.722C83.0675 360.212 88.8433 358.552 93.8601 356.002C87.3845 364.173 78.4302 368.905 69.0964 368.644H69.0845ZM106.728 344.782C103.728 349.111 99.541 352.681 94.6072 355.338C97.1216 352.005 99.2326 348.162 100.786 343.952C101.32 342.517 101.783 341.046 102.186 339.528C104.297 338.84 106.123 338.046 107.582 337.132C109.432 335.994 110.725 334.689 111.342 333.266C110.737 337.358 109.183 341.224 106.716 344.782H106.728Z" fill="#FFFEFF"/>
<path d="M117.58 331.202C117.343 336.35 116.275 341.355 114.413 346.075C107.131 364.648 88.8433 376.508 68.8829 375.594C67.6376 375.535 66.3686 375.428 65.1114 375.262C64.0203 375.12 63.0241 375.891 62.8817 376.994C62.7394 378.085 63.5222 379.081 64.6133 379.224C65.9772 379.401 67.3648 379.52 68.705 379.579C72.5358 379.757 76.2954 379.496 79.9601 378.844C97.003 375.796 111.614 364.138 118.126 347.545C120.154 342.422 121.304 336.978 121.565 331.392C121.612 330.491 121.612 329.589 121.612 328.688C120.047 322.284 117.592 316.223 113.915 310.886C116.596 317.196 117.912 324.122 117.592 331.214L117.58 331.202Z" fill="#EE1413"/>
<path d="M94.1091 284.035C87.6573 280.726 80.6717 278.864 73.3778 278.532C72.2749 278.485 71.3498 279.327 71.2905 280.43C71.243 281.533 72.0851 282.458 73.1881 282.517C79.9127 282.826 86.3408 284.533 92.2827 287.581C102.174 292.657 109.717 301.007 113.903 310.874C117.58 316.211 120.035 322.272 121.601 328.676C121.458 309.949 110.879 292.634 94.0973 284.023L94.1091 284.035Z" fill="#FFBA15"/>
<g style="mix-blend-mode:multiply" opacity="0.33">
<path d="M102.862 302.478C103.04 307.637 102.02 312.855 99.2564 318.038C87.1829 338.556 62.5971 355.017 38.3553 352.456C44.4394 360.639 53.5479 366.522 64.1982 368.336C65.2775 368.514 66.3804 368.668 67.4834 368.763C85.3564 370.352 101.557 360.165 108.424 344.628C110.191 340.643 111.342 336.302 111.745 331.724C112.717 320.754 109.254 310.424 102.85 302.489L102.862 302.478Z" fill="#457B9D"/>
</g>
<path d="M533.688 62.7276C532.751 62.7276 531.85 62.8699 531.008 63.1309C527.521 54.4612 519.065 48.3414 509.15 48.3414C500.765 48.3414 493.424 52.7415 489.237 59.3357C487.731 58.8138 486.106 58.5055 484.422 58.5055C476.345 58.5055 469.786 65.0522 469.786 73.1407C469.786 81.2292 476.333 87.7759 484.422 87.7759C486.628 87.7759 488.715 87.2778 490.589 86.4002C494.906 91.9151 501.607 95.4731 509.15 95.4731C519.195 95.4731 527.758 89.1754 531.138 80.316C531.945 80.5532 532.799 80.6837 533.688 80.6837C538.646 80.6837 542.666 76.6631 542.666 71.7056C542.666 66.7482 538.646 62.7276 533.688 62.7276Z" fill="white"/>
<path d="M94.6903 111.081C93.7533 111.081 92.852 111.223 92.0099 111.484C88.5231 102.814 80.0669 96.6946 70.1519 96.6946C61.7669 96.6946 54.4256 101.095 50.239 107.689C48.7328 107.167 47.1079 106.859 45.4238 106.859C37.3472 106.859 30.7886 113.405 30.7886 121.494C30.7886 129.582 37.3353 136.129 45.4238 136.129C47.6298 136.129 49.7171 135.631 51.591 134.753C55.9081 140.268 62.609 143.826 70.1519 143.826C80.1973 143.826 88.7603 137.529 92.1522 128.669C92.9587 128.906 93.8126 129.037 94.7021 129.037C99.6596 129.037 103.68 125.016 103.68 120.059C103.68 115.101 99.6596 111.081 94.7021 111.081H94.6903Z" fill="white"/>
<path d="M205.593 42.4707C205 42.4707 204.419 42.5656 203.873 42.7316C201.644 37.193 196.224 33.2673 189.89 33.2673C184.518 33.2673 179.821 36.0782 177.153 40.3003C176.192 39.9682 175.148 39.7666 174.069 39.7666C168.898 39.7666 164.712 43.9532 164.712 49.1242C164.712 54.2951 168.898 58.4817 174.069 58.4817C175.481 58.4817 176.809 58.1615 178.019 57.6041C180.782 61.1383 185.063 63.4155 189.89 63.4155C196.319 63.4155 201.798 59.3831 203.968 53.714C204.49 53.8682 205.036 53.9512 205.593 53.9512C208.772 53.9512 211.345 51.3776 211.345 48.1991C211.345 45.0206 208.772 42.447 205.593 42.447V42.4707Z" fill="white"/>
<path d="M424.386 155.746C423.793 155.746 423.212 155.84 422.667 156.007C420.437 150.468 415.017 146.542 408.684 146.542C403.311 146.542 398.615 149.353 395.946 153.575C394.985 153.243 393.942 153.042 392.863 153.042C387.692 153.042 383.505 157.228 383.505 162.411C383.505 167.594 387.692 171.768 392.863 171.768C394.274 171.768 395.602 171.448 396.812 170.891C399.575 174.425 403.857 176.702 408.684 176.702C415.112 176.702 420.591 172.67 422.762 167.001C423.283 167.155 423.829 167.238 424.386 167.238C427.565 167.238 430.138 164.664 430.138 161.486C430.138 158.307 427.565 155.734 424.386 155.734V155.746Z" fill="white"/>
<g style="mix-blend-mode:multiply" opacity="0.38">
<path d="M219.576 205.012C219.576 205.012 225.731 197.303 235.955 205.427C235.955 205.427 240.45 190.661 252.262 196.105C252.262 196.105 239.797 192.701 237.224 208.689C237.224 208.689 229.586 200.375 219.576 205.012Z" fill="#C58446"/>
</g>
<g style="mix-blend-mode:multiply" opacity="0.38">
<path d="M377.219 33.291C377.219 33.291 387.075 32.781 387.786 45.8152C387.786 45.8152 401.805 39.3752 405.576 51.8282C405.576 51.8282 399.848 40.2528 386.185 48.9344C386.185 48.9344 387.336 37.7148 377.219 33.291Z" fill="#C58446"/>
</g>
<g style="mix-blend-mode:multiply" opacity="0.38">
<path d="M493.566 150.503C493.566 150.503 503.421 149.993 504.133 163.028C504.133 163.028 518.152 156.588 521.923 169.041C521.923 169.041 516.195 157.465 502.532 166.147C502.532 166.147 503.682 154.927 493.566 150.503Z" fill="#C58446"/>
</g>
<g style="mix-blend-mode:multiply" opacity="0.38">
<path d="M46.3133 52.4568C46.3133 52.4568 49.3851 43.0756 61.8025 47.108C61.8025 47.108 60.8418 31.7137 73.8048 32.6625C73.8048 32.6625 60.9367 33.8366 64.127 49.7172C64.127 49.7172 54.0698 44.6055 46.3133 52.4568Z" fill="#C58446"/>
</g>
<g style="mix-blend-mode:multiply" opacity="0.38">
<path d="M406.169 295.788C406.169 295.788 409.241 286.407 421.659 290.44C421.659 290.44 420.698 275.045 433.661 275.994C433.661 275.994 420.793 277.168 423.983 293.049C423.983 293.049 413.926 287.937 406.169 295.788Z" fill="#C58446"/>
</g>
<path d="M344.64 338.212C344.663 338.354 344.675 338.484 344.699 338.615L344.746 338.959L345.838 345.802L346.917 352.728L348.992 366.616C350.344 375.879 351.625 385.154 352.835 394.404C353.286 397.95 353.736 401.497 354.175 405.031C354.661 409.063 355.148 413.108 355.598 417.128C355.788 418.789 355.966 420.449 356.144 422.109C357.128 431.313 357.982 440.48 358.587 449.47C358.872 453.942 359.121 458.425 359.228 462.706C359.275 463.797 359.263 464.829 359.287 465.885V470.297C359.263 470.771 359.239 471.269 359.216 471.755C359.168 472.728 359.156 473.688 359.073 474.685C358.587 482.548 357.211 490.814 355.337 499.116C353.452 507.43 350.997 515.803 348.162 524.093C346.739 528.244 345.209 532.372 343.608 536.452C342.79 538.492 341.971 540.52 341.129 542.512L339.848 545.465L338.662 548.11L338.306 548.905C333.219 560.16 338.235 573.407 349.49 578.495C360.497 583.465 373.412 578.756 378.737 568.023L379.722 566.042L380.587 564.251L382.236 560.729C383.303 558.393 384.335 556.056 385.343 553.708C387.348 549.023 389.245 544.315 391.036 539.535C394.606 529.988 397.773 520.239 400.382 510.111C401.674 505.046 402.837 499.911 403.809 494.645C404.782 489.391 405.565 484.019 406.075 478.504C406.217 477.14 406.3 475.728 406.407 474.341C406.454 473.641 406.513 472.941 406.549 472.242L406.632 470.119L406.715 467.996C406.739 467.308 406.727 466.667 406.739 466.003C406.739 464.687 406.774 463.347 406.751 462.066C406.751 456.871 406.561 451.866 406.347 446.873C405.897 436.922 405.185 427.185 404.367 417.52C404.165 415.219 403.963 412.918 403.75 410.629C403.548 408.423 403.335 406.205 403.11 403.999C402.611 398.876 402.078 393.776 401.532 388.676C400.5 379.105 399.385 369.558 398.199 360.034L396.373 345.743L395.412 338.591L394.416 331.368C392.519 317.635 379.84 308.04 366.094 309.937C352.361 311.835 342.766 324.513 344.663 338.247L344.64 338.212Z" fill="#E5936A"/>
<path d="M354.163 405.043C354.65 409.075 355.136 413.119 355.587 417.14L403.703 410.593C403.501 408.387 403.287 406.169 403.062 403.964L354.163 405.043Z" fill="#C56942"/>
<path d="M342.861 341.153L348.696 410.854L409.858 406.537C409.858 406.537 407.237 333.586 391.392 317.587C382.615 308.728 374.088 305.81 363.058 309.593C349.894 314.1 341.698 327.277 342.861 341.141V341.153Z" fill="#BF1313"/>
<path d="M263.589 267.657C263.589 267.657 241.422 254.219 223.81 261.359C206.198 268.51 193.65 295.943 193.65 295.943L240.817 306.024L263.589 267.657Z" fill="#00B3AA"/>
<path d="M211.155 333.729C211.155 333.729 179.205 295.385 161.011 328.214C141.419 363.58 156.92 391.19 156.92 391.19L188.384 372.096L211.155 333.729Z" fill="#00B3AA"/>
<path d="M308.941 272.495C308.941 272.495 259.604 229.088 197.469 291.993C135.334 354.899 141.869 449.387 176.323 480.899C210.764 512.423 262.735 495.013 262.735 495.013L308.953 272.495H308.941Z" fill="#043B7B"/>
<path d="M379.176 700.535L378.927 713.296H302.169C302.169 712.395 302.169 711.908 302.169 711.908C301.374 684.749 292.906 616.044 288.068 578.46C287.664 575.34 287.285 572.447 286.941 569.802C285.589 559.401 284.711 552.937 284.711 552.937L369.071 542.725L379.188 700.546L379.176 700.535Z" fill="#023E7D"/>
<path d="M318.726 709.738C318.726 709.833 318.631 711.09 318.5 713.296H314.871C314.99 711.351 315.073 710.094 315.096 709.655C312.001 682.816 299.216 579.432 299.085 578.389C298.967 577.392 299.667 576.491 300.663 576.372C301.659 576.254 302.56 576.953 302.679 577.95C302.81 578.993 315.642 682.816 318.714 709.406C318.726 709.513 318.726 709.631 318.714 709.738H318.726Z" fill="#2A4351"/>
<path d="M211.452 506.126C211.452 506.126 203.719 547.825 209.744 573.419C209.744 573.419 328 584.081 370.661 567.798C370.661 567.798 370.115 526.193 365.454 505.983L211.44 506.126H211.452Z" fill="#023E7D"/>
<path d="M288.803 570.027C288.803 570.027 288.542 573.075 288.068 578.472C286.134 600.436 280.726 661.302 275.674 713.308H203.707L208.487 560.278L286.941 569.802L288.803 570.027Z" fill="#023E7D"/>
<path d="M286.609 501.239C286.585 501.69 286.573 502.141 286.549 502.603C286.039 514.724 285.399 531.886 285.067 549.391C285.043 550.352 285.031 551.324 285.008 552.297C284.913 557.883 284.853 563.481 284.842 568.936C284.842 569.707 285.458 570.336 286.229 570.347C287 570.347 287.629 569.719 287.641 568.948C287.652 563.682 287.712 558.286 287.807 552.89C287.818 551.941 287.842 550.992 287.854 550.043C288.186 532.419 288.827 515.115 289.337 502.888C289.36 502.33 289.384 501.785 289.408 501.239H286.597H286.609Z" fill="#2A4351"/>
<path d="M298.125 501.239C298.089 501.986 298.054 502.757 298.018 503.54C297.271 519.397 296.12 541.836 295.361 547.137C295.195 548.359 294.685 549.166 293.784 549.676C292.337 550.482 290.096 550.435 287.866 550.043C286.917 549.877 285.956 549.652 285.067 549.391C283.442 548.928 282.007 548.383 281.153 548.015C280.442 547.707 279.611 548.015 279.303 548.739C278.995 549.45 279.315 550.28 280.026 550.589C280.477 550.778 282.481 551.632 285.008 552.297C285.897 552.534 286.846 552.735 287.807 552.89C288.696 553.02 289.586 553.115 290.475 553.115C292.171 553.127 293.808 552.866 295.148 552.119C296.82 551.194 297.852 549.604 298.149 547.529C298.931 542.061 300.082 519.587 300.829 503.682C300.876 502.84 300.912 502.034 300.948 501.227H298.125V501.239Z" fill="#2A4351"/>
<path d="M277.109 576.953C277.05 577.938 271.772 662.855 267.941 713.308H264.312C268.143 662.938 273.432 577.712 273.492 576.728C273.551 575.732 274.405 574.973 275.413 575.044C276.409 575.103 277.168 575.957 277.109 576.953Z" fill="#2A4351"/>
<path d="M375.986 394.108C375.393 396.931 374.788 400.417 374.159 404.45C373.946 405.837 373.72 407.284 373.495 408.779C371.621 421.35 369.498 437.907 366.759 455.033C366.51 456.563 366.261 458.116 366 459.658C359.904 496.519 372.44 503.789 369.581 515.625C360.556 553.115 223.039 539.855 209.732 522.955C203.494 515.021 208.938 439.852 217.892 392.91C218.188 391.321 218.485 389.755 218.77 388.225C221.189 375.452 223.063 364.956 223.644 358.777C226.313 330.052 232.8 299.762 238.279 287.012C243.747 274.263 292.574 268.119 292.574 268.119L343.549 276.646C343.549 276.646 368.609 287.356 385.841 308.823C403.074 330.301 382.212 364.233 375.95 394.084L375.986 394.108Z" fill="#EE1413"/>
<path d="M218.034 524.141C217.311 524.141 216.682 523.595 216.599 522.86C211.155 473.511 225.198 354.495 225.34 353.298C225.435 352.503 226.158 351.946 226.941 352.04C227.736 352.135 228.293 352.847 228.198 353.642C228.056 354.839 214.049 473.522 219.457 522.552C219.54 523.346 218.971 524.058 218.188 524.141C218.129 524.141 218.082 524.141 218.034 524.141Z" fill="#AD1717"/>
<path d="M337.002 504.264C306.118 504.264 282.991 496.009 268.309 488.478C249.772 478.966 240.544 468.767 240.165 468.34C239.631 467.747 239.691 466.833 240.284 466.312C240.877 465.778 241.79 465.837 242.312 466.43C242.407 466.537 251.634 476.725 269.756 485.999C286.466 494.55 314.361 504.038 352.42 500.717C353.214 500.646 353.914 501.239 353.985 502.022C354.057 502.817 353.464 503.516 352.681 503.587C347.261 504.062 342.031 504.275 337.014 504.275L337.002 504.264Z" fill="#AD1717"/>
<path d="M251.835 371.23C251.752 371.23 251.669 371.206 251.574 371.182C250.851 370.993 250.424 370.245 250.614 369.522C254.943 353.345 266.909 316.235 267.028 315.856C267.253 315.144 268.024 314.753 268.736 314.978C269.447 315.203 269.839 315.974 269.613 316.686C269.495 317.053 257.552 354.104 253.235 370.222C253.069 370.862 252.464 371.265 251.823 371.23H251.835Z" fill="#AD1717"/>
<path d="M360.402 286.099C360.402 286.099 366.213 321.857 343.015 353.938C319.817 386.031 250.412 403.252 218.165 391.546C218.165 391.546 211.606 401.817 214.203 415.231C214.203 415.231 278.912 437.848 336.136 392.72C394.902 346.383 377.907 300.117 377.907 300.117C375.037 294.614 366.32 285.174 360.402 286.099Z" fill="#043B7B"/>
<path d="M350.368 345.719C354.436 347.415 360.532 350.427 365.608 354.863C368.36 357.271 368.597 361.481 366.189 364.232C360.805 370.364 351.009 381.169 343.596 387.288C341.378 389.127 338.14 389.02 336.029 387.063L324.312 376.211C321.797 373.887 321.857 369.89 324.442 367.648C329.744 363.035 338.152 355.219 343.466 347.688C345.007 345.494 347.889 344.687 350.356 345.719H350.368Z" fill="#00B3AA"/>
<path d="M275.365 438.607C275.484 438.642 275.615 438.666 275.745 438.666C304.861 440.03 336.077 410.878 337.393 409.645C338.081 408.992 338.117 407.901 337.464 407.213C336.812 406.525 335.721 406.49 335.033 407.142C334.725 407.439 303.557 436.531 275.911 435.238C274.962 435.191 274.156 435.926 274.12 436.875C274.085 437.693 274.618 438.405 275.377 438.607H275.365Z" fill="#89420F"/>
<path d="M323.659 305.288C302.904 303.438 285.613 277.5 284.877 276.397C284.379 275.638 284.581 274.606 285.352 274.108C286.111 273.61 287.142 273.812 287.652 274.583C287.818 274.844 304.802 300.295 323.956 302.003H323.98C337.559 303.201 344.13 289.586 344.403 289.004C344.794 288.174 345.778 287.818 346.608 288.21C347.439 288.601 347.794 289.586 347.403 290.416C347.095 291.08 339.599 306.723 323.695 305.312H323.671L323.659 305.288Z" fill="#AD1717"/>
<path d="M370.862 406.359C370.779 406.359 370.696 406.336 370.601 406.312C369.878 406.122 369.451 405.375 369.641 404.651C373.97 388.474 385.936 351.364 386.055 350.985C386.28 350.273 387.051 349.882 387.763 350.107C388.474 350.333 388.866 351.104 388.64 351.815C388.522 352.183 376.579 389.233 372.262 405.351C372.096 405.992 371.491 406.395 370.85 406.359H370.862Z" fill="#AD1717"/>
<path d="M293.618 172.812C293.618 172.812 274.346 183.7 276.836 190.436C279.327 197.173 295.954 183.889 295.954 183.889L293.618 172.812Z" fill="#89420F"/>
<path d="M288.447 184.66C288.447 184.66 276.86 191.776 277.643 199.177C278.307 205.344 282.493 203.494 282.493 203.494C282.493 203.494 274.049 209.139 276.196 215.354C278.342 221.557 282.138 220.24 282.138 220.24C282.138 220.24 274.476 230.962 282.138 236.856C289.799 242.751 296.88 230.381 296.88 230.381L302.62 187.424L299.797 173.974C294.982 177.556 290.107 181.15 288.447 184.696V184.66Z" fill="#352A24"/>
<path d="M345.162 265.996L343.276 279.896C341.568 280.999 339.872 281.936 338.2 282.719C313.602 294.152 291.626 272.887 291.626 272.887L294.768 241.707L339.564 261.074L345.173 265.996H345.162Z" fill="#E5936A"/>
<path d="M345.162 265.996L343.276 279.896C341.568 280.999 339.872 281.936 338.2 282.719C320.042 271.962 308.941 248.491 308.941 248.491L339.564 261.062L345.173 265.984L345.162 265.996Z" fill="#FF5623"/>
<path d="M367.375 216.315C367.375 216.315 375.962 208.57 378.963 217.892C381.963 227.202 376.342 244.47 365.466 240.035L367.375 216.315Z" fill="#C56942"/>
<path d="M371.74 242.027C371.74 242.027 367.435 269.103 339.421 265.237C311.574 261.406 295.634 242.845 294.78 241.707C294.768 241.683 294.757 241.671 294.757 241.671L295.219 235.967L297.627 206.364L298.908 190.543C298.908 190.543 299.192 161.77 326.767 160.264C346.917 159.161 364.897 164.925 372.795 176.429C373.056 176.797 373.294 177.177 373.519 177.568C375.962 181.565 377.219 186.214 377.018 191.456L374.053 219.79L373.329 226.739L371.728 242.039L371.74 242.027Z" fill="#E5936A"/>
<path d="M334.286 172.729C331.214 172.444 328.249 174.247 327.348 177.2C326.707 179.3 325 181.66 320.991 183.498C311.621 187.803 312.155 195.536 313.27 202.047C314.397 208.558 300.343 218.39 294.804 201.845C289.277 185.289 300.758 153.563 323.956 155.129C347.154 156.694 376.531 168.282 377.658 179.027C378.785 189.772 376.009 198.465 376.009 198.465C376.009 198.465 372.724 194.789 373.898 188.301C375.084 181.814 370.898 178.624 363.438 176.572C358.35 175.172 343.335 173.607 334.286 172.753V172.729Z" fill="#352A24"/>
<path d="M349.313 222.778C355.883 223.668 358.718 219.386 358.836 219.197C359.014 218.912 359.061 218.568 358.955 218.248C355.705 208.357 352.444 198.193 352.408 198.098C352.218 197.505 351.59 197.184 350.997 197.374C350.404 197.564 350.083 198.193 350.273 198.786C350.309 198.88 353.452 208.665 356.63 218.378C355.871 219.22 353.677 221.118 349.597 220.56C348.98 220.477 348.423 220.904 348.34 221.521C348.257 222.138 348.684 222.695 349.301 222.778H349.313Z" fill="#352A24"/>
<path d="M373.329 226.728C372.629 226.704 371.894 226.633 371.135 226.538C366.154 225.862 362.335 223.715 362.596 221.758C362.857 219.801 367.114 218.758 372.096 219.434C372.772 219.529 373.424 219.647 374.041 219.79L373.317 226.728H373.329Z" fill="#C56942"/>
<path d="M337.037 218.295C336.776 220.252 332.519 221.296 327.526 220.62C322.545 219.944 318.714 217.809 318.986 215.84C319.259 213.883 323.505 212.84 328.498 213.516C333.479 214.192 337.31 216.326 337.037 218.295Z" fill="#C56942"/>
<path d="M325.308 191.575C326.304 194.919 329.791 196.852 333.147 195.915C335.104 195.37 337.405 194.884 339.777 194.694C343.145 194.421 345.612 191.42 345.162 188.064C345.162 188.064 332.282 185.099 325.308 191.575Z" fill="#352A24"/>
<path d="M375.986 198.453C374.136 201.407 370.257 202.344 367.269 200.553C365.525 199.509 363.438 198.418 361.208 197.611C358.03 196.461 356.464 192.891 357.781 189.784C357.781 189.784 370.993 190.365 375.986 198.453Z" fill="#352A24"/>
<path d="M333.385 222.861C333.076 222.79 332.756 222.707 332.448 222.612C324.181 220.181 319.437 211.476 321.869 203.209C323.043 199.201 325.711 195.904 329.376 193.899C333.041 191.907 337.263 191.444 341.271 192.63C349.538 195.061 354.282 203.767 351.851 212.033C349.514 219.991 341.366 224.676 333.385 222.861ZM339.789 194.824C333.088 193.294 326.233 197.232 324.264 203.921C322.224 210.871 326.209 218.188 333.159 220.228C340.109 222.268 347.427 218.283 349.467 211.333C351.507 204.383 347.522 197.066 340.572 195.026C340.311 194.955 340.05 194.884 339.789 194.824Z" fill="#F0EAE0"/>
<path d="M369.486 226.182C369.166 226.111 368.858 226.028 368.538 225.933C364.529 224.759 361.232 222.09 359.228 218.426C357.235 214.761 356.773 210.539 357.959 206.53C360.39 198.264 369.107 193.52 377.361 195.951C385.628 198.382 390.372 207.088 387.941 215.354C386.766 219.363 384.098 222.66 380.433 224.664C377.053 226.502 373.211 227.036 369.486 226.182ZM375.879 198.145C369.178 196.615 362.323 200.553 360.354 207.242C359.358 210.61 359.738 214.156 361.422 217.24C363.106 220.323 365.881 222.565 369.249 223.549C376.211 225.589 383.517 221.604 385.557 214.654C387.597 207.704 383.612 200.387 376.662 198.347C376.401 198.276 376.14 198.204 375.879 198.145Z" fill="#F0EAE0"/>
<path d="M350.961 208.855C350.748 208.807 350.546 208.7 350.368 208.534C349.882 208.06 349.858 207.277 350.333 206.779C350.416 206.696 352.444 204.621 355.112 204.597C356.595 204.597 357.947 205.19 359.133 206.388C359.619 206.874 359.607 207.669 359.133 208.143C358.646 208.629 357.852 208.617 357.377 208.143C356.678 207.431 355.954 207.088 355.16 207.088C353.558 207.088 352.159 208.499 352.147 208.511C351.827 208.831 351.388 208.95 350.973 208.855H350.961Z" fill="#F0EAE0"/>
<path d="M292.361 206.139C292.088 206.079 291.839 205.925 291.661 205.688C291.234 205.142 291.341 204.36 291.886 203.945C304.826 193.923 322.343 200.766 323.078 201.051C323.719 201.312 324.027 202.035 323.766 202.664C323.505 203.304 322.782 203.612 322.153 203.363C321.987 203.292 305.205 196.769 293.416 205.913C293.108 206.151 292.729 206.222 292.373 206.139H292.361Z" fill="#F0EAE0"/>
<path d="M333.456 225.186C333.456 225.186 334.25 237.532 343.205 241.659C353.392 246.356 359.014 233.547 359.014 233.547L333.456 225.186Z" fill="#F0EAE0"/>
<path d="M346.11 246.7C346.502 246.7 346.751 246.652 346.798 246.641C347.284 246.558 347.628 246.107 347.545 245.609C347.462 245.123 347.012 244.779 346.514 244.862C346.371 244.885 343.157 245.324 341.224 242.656C340.928 242.252 340.37 242.158 339.967 242.454C339.564 242.751 339.481 243.308 339.765 243.711C341.77 246.475 344.758 246.735 346.098 246.688L346.11 246.7Z" fill="#C56942"/>
<path d="M338.235 207.194C337.868 209.886 336.35 211.903 334.843 211.701C333.337 211.499 332.412 209.151 332.78 206.447C333.147 203.755 334.665 201.739 336.172 201.94C337.678 202.142 338.603 204.49 338.235 207.194Z" fill="#352A24"/>
<path d="M364.897 210.812C364.529 213.504 363.011 215.52 361.505 215.318C359.998 215.117 359.073 212.768 359.441 210.064C359.809 207.372 361.327 205.356 362.833 205.558C364.339 205.759 365.264 208.107 364.897 210.812Z" fill="#352A24"/>
<path d="M362.596 155.07C362.596 155.07 355.017 135.085 328.7 138.442C299.346 142.178 288.459 155.07 286.585 169.456C285.34 179.027 288.459 184.66 288.459 184.66C304.197 167.736 332.531 159.956 362.608 155.081L362.596 155.07Z" fill="#FF811A"/>
<path d="M300.105 175.16C299.821 175.16 299.56 174.994 299.441 174.71C292.729 158.485 303.497 145.736 303.604 145.605C303.865 145.309 304.316 145.273 304.624 145.534C304.921 145.795 304.956 146.246 304.695 146.554C304.589 146.673 294.401 158.782 300.77 174.164C300.924 174.532 300.746 174.959 300.378 175.101C300.283 175.137 300.2 175.16 300.105 175.16Z" fill="#89420F"/>
<path d="M317.219 166.455C317.219 166.455 380.979 143.281 402.445 156.493C423.912 169.705 377.018 191.456 377.018 191.456C377.018 191.456 386.007 161.474 317.219 166.455Z" fill="#043B7B"/>
<path d="M336.966 154.69C346.075 152.911 355.575 152.342 355.717 152.555L353.511 147.289C349.111 146.779 342.066 147.657 335.662 148.772C336.195 150.717 336.563 152.698 336.966 154.678V154.69Z" fill="#89420F"/>
<path d="M305.027 231.958C304.861 232.243 300.2 239.987 294.768 241.695L294.745 241.659L295.207 235.955C295.207 235.955 299.738 235.801 305.027 231.946V231.958Z" fill="#352A24"/>
<path d="M302.632 212.579C302.632 212.579 293.82 196.651 284.391 206.945C276.611 215.437 285.601 241.517 299.607 234.899L302.643 212.579H302.632Z" fill="#E5936A"/>
<path d="M298.718 230.345C298.718 230.345 298.801 230.345 298.836 230.345C299.453 230.357 299.963 229.871 299.987 229.254C300.307 216.765 290.534 211.096 290.119 210.859C289.586 210.551 288.898 210.74 288.589 211.286C288.281 211.82 288.471 212.508 289.016 212.804C289.384 213.018 298.042 218.082 297.745 229.195C297.733 229.776 298.149 230.25 298.706 230.333L298.718 230.345Z" fill="#352A24"/>
<path d="M289.289 222.221C289.538 222.256 289.787 222.209 290.024 222.067C291.092 221.414 294.282 219.896 296.12 220.644C296.69 220.881 297.342 220.596 297.579 220.027C297.816 219.458 297.532 218.805 296.962 218.568C293.748 217.263 289.348 219.861 288.862 220.157C288.34 220.477 288.174 221.165 288.494 221.699C288.672 221.996 288.981 222.185 289.301 222.221H289.289Z" fill="#352A24"/>
<path d="M360.568 530.308C360.568 530.308 360.686 575.649 367.565 587.722C367.565 587.722 391.155 569.577 386.565 534.352C383.493 510.727 360.568 530.308 360.568 530.308Z" fill="#E5936A"/>
<path d="M365.679 452.578L358.208 455.46L281.853 484.92C280.536 485.43 279.066 484.778 278.556 483.461L232.468 364.055C231.958 362.738 232.61 361.268 233.927 360.758L310.281 331.297L317.753 328.415C319.07 327.905 320.54 328.558 321.05 329.874L367.138 449.281C367.648 450.597 366.984 452.068 365.679 452.578Z" fill="#FFFFFD"/>
<path d="M365.679 452.578L358.208 455.46L310.281 331.285L317.753 328.403C319.07 327.893 320.54 328.546 321.05 329.862L367.138 449.269C367.648 450.585 366.984 452.056 365.679 452.566V452.578Z" fill="#1E6CBF"/>
<path d="M302.819 358.193L260.319 374.592C259.329 374.974 258.836 376.086 259.218 377.076L263.21 387.422C263.592 388.412 264.704 388.905 265.694 388.523L308.194 372.123C309.184 371.741 309.677 370.629 309.295 369.639L305.303 359.293C304.921 358.303 303.809 357.811 302.819 358.193Z" fill="#F0EAE0"/>
<path d="M304.49 349.895L250.998 371.932L264.041 403.591L317.532 381.554L304.49 349.895Z" fill="#243F79"/>
<path d="M305.561 352.467L292.812 369.309L309.641 362.371L312.962 370.435L298.445 376.425L316.508 379.022L317.54 381.536L313.317 383.28L290.321 379.959L294.828 390.894L286.763 394.215L282.244 383.256L268.131 401.888L264.051 403.572L262.984 400.987L273.942 386.517L259.473 392.471L256.152 384.418L273.041 377.456L252.037 374.432L251.005 371.918L255.227 370.174L278.224 373.507L273.717 362.56L281.782 359.239L286.3 370.198L300.414 351.566L304.494 349.882L305.561 352.467Z" fill="white"/>
<path d="M304.885 350.831L288.234 372.843L310.222 363.782L312.392 369.036L292.728 377.136L317.172 380.659L317.54 381.536L316.081 382.141L289.787 378.346L288.269 378.975L293.405 391.451L288.162 393.61L283.015 381.133L281.473 381.773L265.367 403.027L264.051 403.572L263.648 402.612L278.532 382.983L258.892 391.072L256.733 385.818L278.757 376.745L251.373 372.795L251.005 371.918L252.464 371.313L280.655 375.393L275.128 361.979L280.37 359.821L285.909 373.234L303.177 350.428L304.494 349.882L304.885 350.831Z" fill="#A92929"/>
<path d="M272.46 407.118C273.847 406.336 281.39 403.525 281.877 403.181C290.238 397.191 289.028 384.94 294.436 381.097C294.436 381.097 321.169 351.341 323.944 358.979C325.462 363.177 321.857 369.202 318.311 373.768C318.761 373.614 319.164 373.471 319.544 373.317C327.632 370.139 337.144 357.911 342.339 362.797C347.545 367.684 339.054 374.93 339.054 374.93C339.054 374.93 345.339 378.215 340.809 387.786C340.809 387.786 345.719 391.878 342.73 398.01C342.73 398.01 347.795 404.011 343.323 409.68C339.516 414.495 322.046 423.295 292.693 433.685C283.347 428.016 276.99 421.078 272.46 407.142V407.118Z" fill="#E5936A"/>
<path d="M254.717 338.781L245.632 361.422C242.584 368.976 239.548 376.531 236.56 384.086C233.583 391.641 230.594 399.172 227.724 406.679L225.577 412.289L223.49 417.863L221.509 423.355C221.177 424.268 220.904 425.122 220.596 425.999L220.145 427.316L219.92 427.968L219.813 428.3L219.79 428.383L219.813 428.312L219.884 428.004C219.967 427.624 220.074 427.067 220.133 426.533C220.181 426.225 220.205 425.904 220.216 425.584C220.24 425.24 220.252 424.849 220.24 424.493C220.24 422.951 219.967 420.983 219.244 419.002C218.544 417.021 217.394 415.159 216.243 413.831C215.081 412.479 213.978 411.613 213.1 411.044C212.211 410.475 211.618 410.19 211.132 409.988C210.645 409.799 210.396 409.727 210.207 409.692C209.875 409.621 209.934 409.704 210.207 409.775C210.764 409.929 211.997 410.095 213.385 410.178C214.785 410.261 216.386 410.273 218.058 410.237C221.414 410.166 225.067 409.893 228.791 409.514C232.515 409.123 236.322 408.648 240.165 408.103C247.85 407 255.666 405.612 263.482 404.082C267.396 403.335 271.309 402.552 275.223 401.722L281.082 400.465L286.822 399.196L287.202 399.113C296.453 397.073 305.608 402.92 307.648 412.171C309.546 420.793 304.529 429.344 296.358 432.131L293.262 433.175L290.25 434.171L284.213 436.08C280.192 437.338 276.148 438.547 272.092 439.721C263.956 442.034 255.749 444.204 247.317 446.138C243.094 447.098 238.825 448.012 234.425 448.782C230.025 449.565 225.53 450.253 220.703 450.727C218.283 450.965 215.781 451.131 213.077 451.178C210.361 451.214 207.491 451.178 203.992 450.727C202.249 450.502 200.292 450.146 198.003 449.494C196.829 449.15 195.607 448.747 194.184 448.13C192.772 447.513 191.254 446.766 189.523 445.604C187.803 444.454 185.917 442.912 184.091 440.777C182.276 438.666 180.604 435.902 179.572 432.961C178.505 430.02 178.09 427.019 178.078 424.458C178.078 423.841 178.09 423.189 178.125 422.596C178.161 422.026 178.22 421.457 178.291 420.888C178.434 419.844 178.623 418.777 178.837 417.911L179.845 413.997C180.13 412.918 180.414 411.791 180.699 410.759L182.454 404.521L184.245 398.413L186.072 392.388C188.562 384.394 191.053 376.46 193.674 368.597C196.283 360.734 198.904 352.882 201.573 345.067L205.652 333.361L207.716 327.514L209.827 321.655C214.322 309.178 228.08 302.715 240.545 307.21C253.021 311.705 259.485 325.462 254.99 337.939C254.907 338.176 254.812 338.413 254.717 338.65L254.646 338.816L254.717 338.781Z" fill="#E5936A"/>
<path d="M211.144 418.575C210.823 418.575 210.503 418.468 210.242 418.255C209.625 417.757 209.531 416.844 210.029 416.227C214.014 411.305 225.897 408.032 226.407 407.901C227.178 407.688 227.961 408.15 228.175 408.909C228.388 409.68 227.925 410.463 227.166 410.676C223.976 411.542 215.093 414.555 212.27 418.041C211.986 418.397 211.571 418.575 211.155 418.575H211.144Z" fill="#C56942"/>
<path d="M223.858 410.736C223.632 410.736 223.395 410.676 223.181 410.57C218.26 407.948 211.262 408.114 211.191 408.114C210.385 408.126 209.732 407.51 209.709 406.715C209.685 405.92 210.313 405.256 211.108 405.233C211.428 405.233 218.947 405.055 224.534 408.02C225.233 408.387 225.506 409.265 225.127 409.965C224.866 410.451 224.367 410.736 223.858 410.736Z" fill="#C56942"/>
<path d="M240.722 283.774C240.722 283.774 220.015 287.676 207.064 314.919C194.113 342.161 189.464 360.769 189.464 360.769L244.565 376.721C244.565 376.721 290.985 281.545 240.722 283.774Z" fill="#EE1413"/>
<path d="M100.134 171.223L94.4293 192.452L64.4354 150.124L70.1401 128.895L100.134 171.223Z" fill="#FFFEFF"/>
<path d="M67.9578 125.265L118.102 120.51C123.036 120.047 127.329 121.494 129.867 124.483L165.957 166.977L96.7895 167.653L67.9697 125.265" fill="#FFBA15"/>
<path d="M60.2132 154.073L61.2332 150.29L90.053 192.678L89.033 196.461L60.2132 154.073Z" fill="#FFCF5C"/>
<path d="M92.0692 192.571L150.373 189.57C151.262 189.523 152.152 189.381 153.03 189.167C159.054 187.803 163.644 183.403 165.008 178.339C166.372 173.275 164.048 169.23 158.592 168.459C157.809 168.329 156.967 168.282 156.078 168.329H155.769L97.7738 171.33L95.7695 171.436L96.7894 167.653L98.7938 167.546L157.098 164.546C165.921 164.095 171.353 170.191 169.218 178.125C167.084 186.072 158.177 192.903 149.353 193.354L91.0492 196.354L89.0449 196.461L90.0648 192.678L92.0692 192.571Z" fill="#FF7E15"/>
<path d="M66.9378 129.061L67.9578 125.265L96.7776 167.653L95.7695 171.448L66.9378 129.061Z" fill="#FFCF5C"/>
<path d="M156.967 168.293C157.88 168.246 158.711 168.293 159.481 168.424C164.32 169.23 166.277 173.287 164.925 178.351C163.561 183.415 159.339 187.791 153.919 189.12C153.053 189.333 152.176 189.475 151.262 189.523L94.4175 192.44L100.122 171.211L156.967 168.293Z" fill="#FFFEFF"/>
<path d="M156.967 168.293C157.88 168.246 158.711 168.293 159.481 168.424C164.32 169.23 166.277 173.287 164.925 178.351C163.561 183.415 159.339 187.791 153.919 189.12C153.053 189.333 152.176 189.475 151.262 189.523L94.4175 192.44L100.122 171.211L156.967 168.293Z" fill="#FFEDFF"/>
<path d="M61.2332 150.29L64.4354 150.124L94.4293 192.452L90.053 192.678L61.2332 150.29Z" fill="#FFBA15"/>
<path d="M147.657 178.256L157.24 177.627C158.402 179.228 159.256 181.031 159.813 182.941C157.192 183.356 154.726 184.281 152.271 185.099C150.563 180.865 147.657 178.268 147.657 178.268V178.256Z" fill="#4475FE"/>
<path d="M153.468 190.827C153.433 188.693 152.947 186.759 152.271 185.087C154.726 184.281 157.192 183.344 159.813 182.929C160.335 184.72 160.596 186.617 160.62 188.515C158.177 189.084 155.769 189.843 153.468 190.827Z" fill="#448DFE"/>
<path d="M153.468 190.827C155.769 189.843 158.177 189.084 160.62 188.515C160.656 192.95 159.339 197.457 156.813 201.003C157.145 199.129 156.694 197.125 155.615 195.571C154.393 197.694 152.413 199.592 150.29 200.814C152.721 197.208 153.54 193.828 153.48 190.839L153.468 190.827Z" fill="#4475FE"/>
<path d="M447.066 132.192C446.841 132.286 446.58 132.168 446.497 131.943L442.37 121.518C442.275 121.292 442.394 121.031 442.619 120.948C442.844 120.853 443.105 120.972 443.188 121.197L447.316 131.622C447.41 131.848 447.292 132.109 447.066 132.203V132.192Z" fill="#B33233"/>
<path d="M496.509 102.983L429.458 129.544L465.353 220.159L532.405 193.598L496.509 102.983Z" fill="#CCCBCC"/>
<path d="M497.032 102.028L429.981 128.589L465.876 219.204L532.927 192.643L497.032 102.028Z" fill="#EBEAEB"/>
<path d="M497.887 101.291L430.836 127.852L466.731 218.467L533.782 191.906L497.887 101.291Z" fill="#FFFEFF"/>
<g style="mix-blend-mode:multiply" opacity="0.06">
<path d="M490.984 104.012L486.857 105.649C494.317 118.956 498.408 134.22 497.91 149.697C497.128 173.678 488.719 198.833 471.878 216.409L515.534 199.118C515.819 197.173 516.056 195.263 516.258 193.437C520.681 161.616 512.878 127.009 490.972 104.012H490.984Z" fill="#457B9D"/>
</g>
<g opacity="0.58">
<path d="M470.953 213.812C470.834 213.86 470.715 213.812 470.668 213.694L436.535 127.519C436.487 127.4 436.535 127.282 436.653 127.234C436.772 127.187 436.891 127.234 436.938 127.353L471.071 213.527C471.119 213.646 471.071 213.765 470.953 213.812Z" fill="#457B9D"/>
</g>
<g opacity="0.58">
<path d="M497.851 107.463L435.088 132.322C434.969 132.369 434.851 132.322 434.803 132.203C434.756 132.085 434.803 131.966 434.922 131.919L497.685 107.06C497.804 107.013 497.922 107.06 497.97 107.179C498.017 107.297 497.97 107.416 497.851 107.463Z" fill="#457B9D"/>
<path d="M499.725 112.196L436.962 137.054C436.843 137.102 436.725 137.054 436.677 136.936C436.63 136.817 436.677 136.698 436.796 136.651L499.559 111.792C499.677 111.745 499.796 111.792 499.843 111.911C499.891 112.03 499.843 112.148 499.725 112.196Z" fill="#457B9D"/>
<path d="M501.599 116.928L438.836 141.786C438.717 141.834 438.598 141.786 438.551 141.668C438.504 141.549 438.551 141.43 438.67 141.383L501.433 116.524C501.551 116.477 501.67 116.524 501.717 116.643C501.765 116.762 501.717 116.88 501.599 116.928Z" fill="#457B9D"/>
<path d="M503.473 121.648L440.709 146.507C440.591 146.554 440.472 146.507 440.425 146.388C440.377 146.269 440.425 146.151 440.543 146.103L503.307 121.245C503.425 121.197 503.544 121.245 503.591 121.363C503.639 121.482 503.591 121.601 503.473 121.648Z" fill="#457B9D"/>
<path d="M505.347 126.38L442.583 151.239C442.465 151.286 442.346 151.239 442.299 151.12C442.251 151.002 442.299 150.883 442.417 150.835L505.18 125.977C505.299 125.929 505.418 125.977 505.465 126.096C505.513 126.214 505.465 126.333 505.347 126.38Z" fill="#457B9D"/>
<path d="M507.22 131.1L444.457 155.959C444.339 156.006 444.22 155.959 444.173 155.84C444.125 155.722 444.173 155.603 444.291 155.556L507.054 130.697C507.173 130.65 507.292 130.697 507.339 130.816C507.386 130.934 507.339 131.053 507.22 131.1Z" fill="#457B9D"/>
<path d="M509.094 135.833L446.331 160.691C446.213 160.739 446.094 160.691 446.046 160.573C445.999 160.454 446.047 160.335 446.165 160.288L508.928 135.429C509.047 135.382 509.165 135.429 509.213 135.548C509.26 135.667 509.213 135.785 509.094 135.833Z" fill="#457B9D"/>
<path d="M510.968 140.553L448.205 165.411C448.086 165.459 447.968 165.411 447.92 165.293C447.873 165.174 447.92 165.056 448.039 165.008L510.802 140.15C510.921 140.102 511.039 140.15 511.087 140.268C511.134 140.387 511.087 140.505 510.968 140.553Z" fill="#457B9D"/>
<path d="M512.83 145.285L450.067 170.144C449.948 170.191 449.83 170.143 449.782 170.025C449.735 169.906 449.782 169.788 449.901 169.74L512.664 144.882C512.783 144.834 512.901 144.882 512.949 145C512.996 145.119 512.949 145.238 512.83 145.285Z" fill="#457B9D"/>
<path d="M514.704 150.005L451.941 174.864C451.822 174.911 451.704 174.864 451.656 174.745C451.609 174.627 451.656 174.508 451.775 174.461L514.538 149.602C514.657 149.555 514.775 149.602 514.823 149.721C514.87 149.839 514.823 149.958 514.704 150.005Z" fill="#457B9D"/>
<path d="M516.578 154.737L453.815 179.596C453.696 179.643 453.578 179.596 453.53 179.477C453.483 179.359 453.53 179.24 453.649 179.193L516.412 154.334C516.53 154.287 516.649 154.334 516.697 154.453C516.744 154.571 516.697 154.69 516.578 154.737Z" fill="#457B9D"/>
<path d="M518.452 159.458L455.689 184.316C455.57 184.364 455.451 184.316 455.404 184.198C455.357 184.079 455.404 183.96 455.523 183.913L518.286 159.054C518.404 159.007 518.523 159.054 518.57 159.173C518.618 159.292 518.57 159.41 518.452 159.458Z" fill="#457B9D"/>
<path d="M520.326 164.19L457.563 189.048C457.444 189.096 457.325 189.048 457.278 188.93C457.231 188.811 457.278 188.693 457.397 188.645L520.16 163.787C520.278 163.739 520.397 163.787 520.444 163.905C520.492 164.024 520.444 164.142 520.326 164.19Z" fill="#457B9D"/>
<path d="M522.2 168.91L459.436 193.769C459.318 193.816 459.199 193.769 459.152 193.65C459.104 193.531 459.152 193.413 459.27 193.365L522.034 168.507C522.152 168.459 522.271 168.507 522.318 168.625C522.366 168.744 522.318 168.863 522.2 168.91Z" fill="#457B9D"/>
<path d="M524.073 173.642L461.31 198.501C461.192 198.548 461.073 198.501 461.026 198.382C460.978 198.264 461.026 198.145 461.144 198.098L523.907 173.239C524.026 173.192 524.145 173.239 524.192 173.358C524.239 173.476 524.192 173.595 524.073 173.642Z" fill="#457B9D"/>
<path d="M525.947 178.362L463.184 203.221C463.066 203.268 462.947 203.221 462.9 203.102C462.852 202.984 462.9 202.865 463.018 202.818L525.781 177.959C525.9 177.912 526.018 177.959 526.066 178.078C526.113 178.196 526.066 178.315 525.947 178.362Z" fill="#457B9D"/>
<path d="M527.809 183.095L465.046 207.953C464.928 208.001 464.809 207.953 464.762 207.835C464.714 207.716 464.762 207.597 464.88 207.55L527.643 182.691C527.762 182.644 527.881 182.691 527.928 182.81C527.975 182.929 527.928 183.047 527.809 183.095Z" fill="#457B9D"/>
<path d="M529.683 187.815L466.92 212.674C466.801 212.721 466.683 212.674 466.635 212.555C466.588 212.436 466.635 212.318 466.754 212.27L529.517 187.412C529.636 187.364 529.754 187.412 529.802 187.53C529.849 187.649 529.802 187.768 529.683 187.815Z" fill="#457B9D"/>
</g>
<path d="M447.209 136.212C445.892 136.544 444.54 135.785 444.042 134.516L440.674 126.024C440.579 125.799 440.698 125.538 440.923 125.455C441.148 125.36 441.409 125.479 441.492 125.704L444.861 134.208C445.204 135.074 446.141 135.595 447.031 135.334C448.051 135.038 448.585 133.935 448.193 132.962L443.698 121.612C443.236 120.45 441.979 119.75 440.769 120.094C439.393 120.486 438.681 121.98 439.191 123.285L439.618 124.352L438.8 124.684L438.421 123.724C437.804 122.17 438.373 120.343 439.832 119.537C441.599 118.564 443.769 119.383 444.481 121.197L449.023 132.654C449.605 134.125 448.786 135.821 447.197 136.224L447.209 136.212Z" fill="#FF4749"/>
<path d="M438.244 144.647L431.49 149.813L469.209 199.13L475.963 193.963L438.244 144.647Z" fill="#FF9900"/>
<path d="M469.217 199.153L469.514 199.533C470.605 200.956 472.384 201.418 473.499 200.564L476.226 198.477C477.341 197.623 477.353 195.785 476.274 194.362L475.977 193.982L469.229 199.141L469.217 199.153Z" fill="#FF4749"/>
<path d="M430.898 145.297L431.491 149.839L438.251 144.668L434.029 142.901L430.898 145.297Z" fill="#FFADAB"/>
<path d="M431.728 144.656L433.293 148.464L436.46 146.044L433.198 143.542L431.728 144.656Z" fill="#FFC9C7"/>
<path d="M430.388 141.383L430.898 145.297L434.029 142.901L430.388 141.383Z" fill="#020A2F"/>
<path d="M436.276 146.141L433.449 148.303L471.168 197.619L473.994 195.458L436.276 146.141Z" fill="#FFBA15"/>
<path opacity="0.54" d="M433.459 148.333L437.788 154.002C440.943 158.129 444.999 161.521 449.684 163.775L449.767 163.81L436.27 146.174L433.447 148.333H433.459Z" fill="#FFDF91"/>
<path d="M510.635 125.898L487.872 196.292C487.467 197.544 488.154 198.888 489.406 199.293L496.256 201.508C497.509 201.913 498.853 201.226 499.258 199.974L522.021 129.58C522.427 128.327 521.739 126.983 520.487 126.578L513.637 124.363C512.384 123.958 511.04 124.645 510.635 125.898Z" fill="#4475FE"/>
<path d="M522.006 129.571C522.409 128.325 521.721 126.973 520.476 126.57L514.463 124.625C509.458 140.66 504.773 159.315 506.849 176.429L522.006 129.559V129.571Z" fill="#5E88FE"/>
<path d="M521.247 127.887L518.863 127.116" stroke="#FFFEFF" stroke-width="0.75" stroke-linecap="round" stroke-linejoin="round"/>
<path d="M520.879 129.013L519.551 128.586" stroke="#FFFEFF" stroke-width="0.75" stroke-linecap="round" stroke-linejoin="round"/>
<path d="M520.524 130.14L519.183 129.713" stroke="#FFFEFF" stroke-width="0.75" stroke-linecap="round" stroke-linejoin="round"/>
<path d="M520.156 131.267L518.816 130.84" stroke="#FFFEFF" stroke-width="0.75" stroke-linecap="round" stroke-linejoin="round"/>
<path d="M519.788 132.393L518.46 131.966" stroke="#FFFEFF" stroke-width="0.75" stroke-linecap="round" stroke-linejoin="round"/>
<path d="M519.444 133.473L517.06 132.702" stroke="#FFFEFF" stroke-width="0.75" stroke-linecap="round" stroke-linejoin="round"/>
<path d="M519.077 134.599L517.748 134.172" stroke="#FFFEFF" stroke-width="0.75" stroke-linecap="round" stroke-linejoin="round"/>
<path d="M518.721 135.726L517.381 135.299" stroke="#FFFEFF" stroke-width="0.75" stroke-linecap="round" stroke-linejoin="round"/>
<path d="M518.353 136.853L517.025 136.426" stroke="#FFFEFF" stroke-width="0.75" stroke-linecap="round" stroke-linejoin="round"/>
<path d="M517.985 137.979L516.657 137.552" stroke="#FFFEFF" stroke-width="0.75" stroke-linecap="round" stroke-linejoin="round"/>
<path d="M517.642 139.047L515.27 138.288" stroke="#FFFEFF" stroke-width="0.75" stroke-linecap="round" stroke-linejoin="round"/>
<path d="M517.286 140.173L515.946 139.746" stroke="#FFFEFF" stroke-width="0.75" stroke-linecap="round" stroke-linejoin="round"/>
<path d="M516.918 141.3L515.59 140.873" stroke="#FFFEFF" stroke-width="0.75" stroke-linecap="round" stroke-linejoin="round"/>
<path d="M516.55 142.439L515.222 142" stroke="#FFFEFF" stroke-width="0.75" stroke-linecap="round" stroke-linejoin="round"/>
<path d="M516.195 143.565L514.854 143.127" stroke="#FFFEFF" stroke-width="0.75" stroke-linecap="round" stroke-linejoin="round"/>
<path d="M515.839 144.633L513.467 143.862" stroke="#FFFEFF" stroke-width="0.75" stroke-linecap="round" stroke-linejoin="round"/>
<path d="M515.483 145.759L514.143 145.333" stroke="#FFFEFF" stroke-width="0.75" stroke-linecap="round" stroke-linejoin="round"/>
<path d="M515.115 146.886L513.787 146.459" stroke="#FFFEFF" stroke-width="0.75" stroke-linecap="round" stroke-linejoin="round"/>
<path d="M514.76 148.013L513.419 147.586" stroke="#FFFEFF" stroke-width="0.75" stroke-linecap="round" stroke-linejoin="round"/>
<path d="M514.392 149.14L513.052 148.713" stroke="#FFFEFF" stroke-width="0.75" stroke-linecap="round" stroke-linejoin="round"/>
<path d="M514.048 150.219L511.664 149.448" stroke="#FFFEFF" stroke-width="0.75" stroke-linecap="round" stroke-linejoin="round"/>
<path d="M513.68 151.346L512.352 150.907" stroke="#FFFEFF" stroke-width="0.75" stroke-linecap="round" stroke-linejoin="round"/>
<path d="M513.313 152.472L511.984 152.045" stroke="#FFFEFF" stroke-width="0.75" stroke-linecap="round" stroke-linejoin="round"/>
<path d="M512.957 153.599L511.617 153.172" stroke="#FFFEFF" stroke-width="0.75" stroke-linecap="round" stroke-linejoin="round"/>
<path d="M512.589 154.726L511.261 154.299" stroke="#FFFEFF" stroke-width="0.75" stroke-linecap="round" stroke-linejoin="round"/>
<path d="M512.245 155.793L509.861 155.034" stroke="#FFFEFF" stroke-width="0.75" stroke-linecap="round" stroke-linejoin="round"/>
<path d="M511.878 156.92L510.549 156.493" stroke="#FFFEFF" stroke-width="0.75" stroke-linecap="round" stroke-linejoin="round"/>
<path d="M511.522 158.046L510.182 157.62" stroke="#FFFEFF" stroke-width="0.75" stroke-linecap="round" stroke-linejoin="round"/>
<path d="M511.154 159.173L509.814 158.746" stroke="#FFFEFF" stroke-width="0.75" stroke-linecap="round" stroke-linejoin="round"/>
<path d="M510.787 160.312L509.458 159.873" stroke="#FFFEFF" stroke-width="0.75" stroke-linecap="round" stroke-linejoin="round"/>
<path d="M510.443 161.379L508.059 160.608" stroke="#FFFEFF" stroke-width="0.75" stroke-linecap="round" stroke-linejoin="round"/>
<path d="M510.075 162.506L508.747 162.079" stroke="#FFFEFF" stroke-width="0.75" stroke-linecap="round" stroke-linejoin="round"/>
<path d="M509.719 163.633L508.379 163.206" stroke="#FFFEFF" stroke-width="0.75" stroke-linecap="round" stroke-linejoin="round"/>
<path d="M509.351 164.759L508.023 164.332" stroke="#FFFEFF" stroke-width="0.75" stroke-linecap="round" stroke-linejoin="round"/>
<path d="M508.984 165.886L507.655 165.459" stroke="#FFFEFF" stroke-width="0.75" stroke-linecap="round" stroke-linejoin="round"/>
<path d="M508.64 166.965L506.268 166.194" stroke="#FFFEFF" stroke-width="0.75" stroke-linecap="round" stroke-linejoin="round"/>
<path d="M508.284 168.092L506.944 167.653" stroke="#FFFEFF" stroke-width="0.75" stroke-linecap="round" stroke-linejoin="round"/>
<path d="M507.916 169.219L506.588 168.792" stroke="#FFFEFF" stroke-width="0.75" stroke-linecap="round" stroke-linejoin="round"/>
<path d="M507.549 170.345L506.22 169.918" stroke="#FFFEFF" stroke-width="0.75" stroke-linecap="round" stroke-linejoin="round"/>
<path d="M507.193 171.472L505.853 171.045" stroke="#FFFEFF" stroke-width="0.75" stroke-linecap="round" stroke-linejoin="round"/>
<path d="M506.837 172.539L504.465 171.78" stroke="#FFFEFF" stroke-width="0.75" stroke-linecap="round" stroke-linejoin="round"/>
<path d="M506.481 173.666L505.141 173.239" stroke="#FFFEFF" stroke-width="0.75" stroke-linecap="round" stroke-linejoin="round"/>
<path d="M506.114 174.793L504.785 174.366" stroke="#FFFEFF" stroke-width="0.75" stroke-linecap="round" stroke-linejoin="round"/>
<path d="M505.758 175.92L504.418 175.493" stroke="#FFFEFF" stroke-width="0.75" stroke-linecap="round" stroke-linejoin="round"/>
<path d="M505.39 177.046L504.05 176.619" stroke="#FFFEFF" stroke-width="0.75" stroke-linecap="round" stroke-linejoin="round"/>
<path d="M505.046 178.125L502.662 177.354" stroke="#FFFEFF" stroke-width="0.75" stroke-linecap="round" stroke-linejoin="round"/>
<path d="M504.679 179.252L503.35 178.825" stroke="#FFFEFF" stroke-width="0.75" stroke-linecap="round" stroke-linejoin="round"/>
<path d="M504.311 180.379L502.983 179.952" stroke="#FFFEFF" stroke-width="0.75" stroke-linecap="round" stroke-linejoin="round"/>
<path d="M503.955 181.506L502.615 181.079" stroke="#FFFEFF" stroke-width="0.75" stroke-linecap="round" stroke-linejoin="round"/>
<path d="M503.587 182.632L502.259 182.205" stroke="#FFFEFF" stroke-width="0.75" stroke-linecap="round" stroke-linejoin="round"/>
<path d="M503.244 183.712L500.86 182.941" stroke="#FFFEFF" stroke-width="0.75" stroke-linecap="round" stroke-linejoin="round"/>
<path d="M502.876 184.838L501.548 184.399" stroke="#FFFEFF" stroke-width="0.75" stroke-linecap="round" stroke-linejoin="round"/>
<path d="M502.52 185.965L501.18 185.538" stroke="#FFFEFF" stroke-width="0.75" stroke-linecap="round" stroke-linejoin="round"/>
<path d="M502.152 187.092L500.812 186.665" stroke="#FFFEFF" stroke-width="0.75" stroke-linecap="round" stroke-linejoin="round"/>
<path d="M501.785 188.218L500.456 187.791" stroke="#FFFEFF" stroke-width="0.75" stroke-linecap="round" stroke-linejoin="round"/>
<path d="M501.441 189.286L499.057 188.527" stroke="#FFFEFF" stroke-width="0.75" stroke-linecap="round" stroke-linejoin="round"/>
<path d="M501.073 190.412L499.745 189.985" stroke="#FFFEFF" stroke-width="0.75" stroke-linecap="round" stroke-linejoin="round"/>
<path d="M500.717 191.539L499.377 191.112" stroke="#FFFEFF" stroke-width="0.75" stroke-linecap="round" stroke-linejoin="round"/>
<path d="M500.35 192.666L499.021 192.239" stroke="#FFFEFF" stroke-width="0.75" stroke-linecap="round" stroke-linejoin="round"/>
<path d="M499.982 193.793L498.654 193.366" stroke="#FFFEFF" stroke-width="0.75" stroke-linecap="round" stroke-linejoin="round"/>
<path d="M499.638 194.872L497.266 194.101" stroke="#FFFEFF" stroke-width="0.75" stroke-linecap="round" stroke-linejoin="round"/>
<path d="M499.282 195.998L497.942 195.571" stroke="#FFFEFF" stroke-width="0.75" stroke-linecap="round" stroke-linejoin="round"/>
<path d="M498.915 197.125L497.586 196.698" stroke="#FFFEFF" stroke-width="0.75" stroke-linecap="round" stroke-linejoin="round"/>
<path d="M498.547 198.252L497.219 197.825" stroke="#FFFEFF" stroke-width="0.75" stroke-linecap="round" stroke-linejoin="round"/>
<path d="M498.191 199.378L496.851 198.952" stroke="#FFFEFF" stroke-width="0.75" stroke-linecap="round" stroke-linejoin="round"/>
<path d="M497.835 200.458L495.463 199.687" stroke="#FFFEFF" stroke-width="0.75" stroke-linecap="round" stroke-linejoin="round"/>
<path d="M199.438 343.489C199.438 343.489 197.837 353.096 188.467 353.096C188.467 353.096 199.212 355.61 199.438 362.703C199.663 355.61 210.42 353.096 210.42 353.096C201.039 353.096 199.438 343.489 199.438 343.489Z" fill="white"/>
<path d="M386.648 304.339C386.648 304.339 385.047 313.946 375.677 313.946C375.677 313.946 386.423 316.46 386.648 323.553C386.873 316.46 397.63 313.946 397.63 313.946C388.249 313.946 386.648 304.339 386.648 304.339Z" fill="white"/>
<path d="M249.262 241.493C249.262 241.493 248.609 245.407 244.79 245.407C244.79 245.407 249.167 246.427 249.262 249.321C249.357 246.439 253.733 245.407 253.733 245.407C249.914 245.407 249.262 241.493 249.262 241.493Z" fill="white"/>
<path d="M355.16 455.056C355.16 455.056 354.507 458.97 350.688 458.97C350.688 458.97 355.065 459.99 355.16 462.884C355.254 460.002 359.631 458.97 359.631 458.97C355.812 458.97 355.16 455.056 355.16 455.056Z" fill="white"/>
<path d="M401.224 420.235C401.224 420.235 399.623 429.842 390.253 429.842C390.253 429.842 400.998 432.356 401.224 439.449C401.449 432.356 412.206 429.842 412.206 429.842C402.825 429.842 401.224 420.235 401.224 420.235Z" fill="white"/>
<path d="M243.213 534.862C243.213 534.862 241.612 544.469 232.243 544.469C232.243 544.469 242.988 546.983 243.213 554.075C243.438 546.983 254.195 544.469 254.195 544.469C244.814 544.469 243.213 534.862 243.213 534.862Z" fill="white"/>
</g>
</g>
<defs>
<clipPath id="clip0_1_6554">
<rect width="593" height="593" fill="white"/>
</clipPath>
</defs>
</svg>
